<svg width="50" height="50" viewBox="0 0 50 50" fill="none" xmlns="http://www.w3.org/2000/svg">
<rect width="50" height="50" rx="25" fill="white"/>
<g clip-path="url(#clip0_518_785)">
<path d="M49.5 1H0.5V50H49.5V1Z" fill="white"/>
<path d="M32.7945 32.7022H36.2269C36.5716 32.7022 36.8629 32.4061 36.8629 32.0662V30.202H38.0863C38.431 30.202 38.7223 29.9058 38.7223 29.566V13.2974C38.7223 12.9527 38.4261 12.6614 38.0863 12.6614H32.9402L32.4498 11.1904C32.4013 10.9962 32.1537 10.7971 31.8624 10.7971H18.1426C17.8998 10.7971 17.6522 10.9913 17.5551 11.2389L17.0648 12.7099H11.8701C11.5254 12.7099 11.2341 13.0061 11.2341 13.3459V29.6145C11.2341 29.9592 11.5303 30.2505 11.8701 30.2505H13.1421V32.1148C13.1421 32.4595 13.4382 32.7508 13.7781 32.7508H17.2104L14.4675 39.3679C14.2733 39.7126 14.5646 40.2029 15.0063 40.2029H17.5066C17.7008 40.2029 17.8998 40.1058 18.0455 39.9068L19.9583 37.0667C20.0554 37.0667 19.468 37.0667 23.1431 37.0667V39.567C23.1431 39.9117 23.4392 40.2029 23.7791 40.2029H26.2793C26.624 40.2029 26.9153 39.9068 26.9153 39.567V37.0667C30.5904 37.0667 30.0515 37.0667 30.1001 37.0667L32.0129 39.9068C32.11 40.0524 32.309 40.2029 32.5518 40.2029C32.6489 40.2029 35.1006 40.2029 35.052 40.2029C35.4938 40.2029 35.8337 39.7126 35.5909 39.3194L32.7994 32.7022H32.7945ZM37.4989 28.93H33.7752V13.9334H37.4989V28.93ZM18.5795 12.0739H31.4157L31.6099 12.7099H18.3805L18.5747 12.0739H18.5795ZM32.4984 13.9382V24.0314L26.9104 17.123C26.6677 16.8268 26.1774 16.8268 25.9298 17.123L22.2546 21.6817L19.7544 18.594C19.5116 18.2979 19.0213 18.2979 18.7737 18.594L13.4334 25.1578H12.5012V13.9382H32.4935H32.4984ZM19.4631 25.1578H15.0549L19.2689 19.9631L21.473 22.6575C18.3853 26.4783 19.9049 24.6189 19.4631 25.1578ZM26.4687 18.4921L31.8575 25.1092H21.0749L26.4638 18.4921H26.4687ZM12.5012 26.4297H32.5421V28.93H12.5546V26.4297H12.5061H12.5012ZM14.3655 30.202H35.6346V31.4254H14.3655V30.202ZM17.157 38.9261H15.9336L18.531 32.6537H21.3225L17.157 38.9261ZM20.7351 35.8384L22.8421 32.7022H23.1382V35.8384H20.7351ZM25.6336 38.9261H24.4102V32.7022H25.6336V38.9261ZM26.857 35.8384V32.7022H27.1532L29.2602 35.8384H26.857ZM32.8334 38.9261L28.6679 32.6537H31.4594L34.0568 38.9261H32.8334Z" fill="black"/>
<path d="M38.1348 32.7021C37.7901 32.7021 37.4988 32.9983 37.4988 33.3381C37.4988 33.678 37.7949 33.9741 38.1348 33.9741C38.4746 33.9741 38.7708 33.678 38.7708 33.3381C38.7708 32.9449 38.4746 32.7021 38.1348 32.7021Z" fill="black"/>
<path d="M11.8701 38.3389C11.5254 38.3389 11.2341 38.635 11.2341 38.9749C11.2341 39.3147 11.5303 39.6108 11.8701 39.6108C12.21 39.6108 12.5061 39.3147 12.5061 38.9749C12.5061 38.5816 12.21 38.3389 11.8701 38.3389Z" fill="black"/>
<path d="M22.2061 18.2979C23.0896 18.2979 23.7742 17.6133 23.7742 16.7297C23.7742 15.8462 23.0896 15.1616 22.2061 15.1616C21.3225 15.1616 20.6379 15.8462 20.6379 16.7297C20.6379 17.6133 21.3225 18.2979 22.2061 18.2979ZM22.2061 16.4336C22.4002 16.4336 22.5022 16.5792 22.5022 16.7297C22.5022 16.8802 22.3566 17.0259 22.2061 17.0259C22.0556 17.0259 21.9099 16.8802 21.9099 16.7297C21.8614 16.5841 22.007 16.4336 22.2061 16.4336Z" fill="black"/>
<path d="M37.8386 35.2026C36.955 35.2026 36.2705 35.8872 36.2705 36.7708C36.2705 37.6543 36.955 38.3389 37.8386 38.3389C38.7222 38.3389 39.4067 37.6543 39.4067 36.7708C39.3582 35.8872 38.6737 35.2026 37.8386 35.2026ZM37.8386 37.0669C37.693 37.0669 37.5425 36.9213 37.5425 36.7708C37.5425 36.6203 37.6881 36.4746 37.8386 36.4746C37.9891 36.4746 38.1348 36.6203 38.1348 36.7708C38.1348 36.9213 37.9891 37.0669 37.8386 37.0669Z" fill="black"/>
<path d="M12.5061 33.2944C11.4769 33.2944 10.6418 34.1295 10.6418 35.1587C10.6418 36.1879 11.4769 37.023 12.5061 37.023C13.5353 37.023 14.3704 36.1879 14.3704 35.1587C14.3704 34.1295 13.5353 33.2944 12.5061 33.2944ZM12.5061 35.8432C12.1614 35.8432 11.8701 35.5471 11.8701 35.2072C11.8701 34.8674 12.1663 34.5713 12.5061 34.5713C12.8459 34.5713 13.1421 34.8674 13.1421 35.2072C13.1421 35.5471 12.8459 35.8432 12.5061 35.8432Z" fill="black"/>
<path d="M25.9833 20.9437C25.6871 20.7495 25.2987 20.798 25.0997 21.0893L23.2354 23.541C23.0412 23.8372 23.0898 24.2255 23.3811 24.4246C23.6723 24.6236 24.0656 24.5702 24.2646 24.2789L26.1289 21.7787C26.3231 21.536 26.2745 21.1427 25.9833 20.9437Z" fill="black"/>
</g>
<defs>
<clipPath id="clip0_518_785">
<rect width="49" height="49" fill="white" transform="translate(0.5 1)"/>
</clipPath>
</defs>
</svg>
