<svg width="50" height="50" viewBox="0 0 50 50" fill="none" xmlns="http://www.w3.org/2000/svg">
<g clip-path="url(#clip0_518_784)">
<rect width="50" height="50" rx="25" fill="white"/>
<g clip-path="url(#clip1_518_784)">
<path d="M51.5 -1H-1.5V51H51.5V-1Z" fill="white"/>
<path d="M32.6859 12.1558L17.8484 15.4838C17.5288 15.5358 17.3192 15.7958 17.3192 16.1078V32.3838C16.8949 32.1758 16.4705 32.0198 15.9937 32.0198C14.511 32.0198 13.2903 33.2158 13.2903 34.6718C13.2903 36.1278 14.511 37.3238 15.9937 37.3238C17.4764 37.3238 18.6972 36.1278 18.6972 34.6718V20.6318L32.2144 17.6158V29.0558C31.79 28.8478 31.3656 28.6918 30.8888 28.6918C29.4061 28.6918 28.1854 29.8878 28.1854 31.3438C28.1854 32.7998 29.4061 33.9958 30.8888 33.9958C32.3715 33.9958 33.5923 32.7998 33.5923 31.3438V12.8318C33.5399 12.3638 33.1155 12.0518 32.6911 12.1558H32.6859ZM15.9361 36.0238C15.1921 36.0238 14.6106 35.4518 14.6106 34.7238C14.6106 33.9958 15.1921 33.4238 15.9361 33.4238C16.6801 33.4238 17.2616 33.9958 17.2616 34.7238C17.314 35.3998 16.6801 36.0238 15.9361 36.0238ZM18.6395 19.2798V16.6798L32.1567 13.6638V16.2638L18.6395 19.2798ZM30.8312 32.6958C30.0872 32.6958 29.5057 32.1238 29.5057 31.3958C29.5057 30.6678 30.0872 30.0958 30.8312 30.0958C31.5752 30.0958 32.1567 30.6678 32.1567 31.3958C32.1567 32.0718 31.5752 32.6958 30.8312 32.6958Z" fill="black"/>
<path d="M40.8485 19.0718L39.523 17.0958C39.3658 16.8878 39.0462 16.7318 38.779 16.8358C38.5118 16.8878 38.3023 17.1478 38.2499 17.4078L37.7207 22.9198C37.4535 22.8158 37.1916 22.7638 36.872 22.7638C35.7613 22.7638 34.8601 23.6478 34.8601 24.7398C34.8601 25.8318 35.7613 26.7158 36.872 26.7158C37.9827 26.7158 38.8838 25.8318 38.8838 24.7918L39.3606 19.3838L39.6278 19.7998C39.8374 20.1118 40.2617 20.1638 40.5813 20.0078C40.9533 19.7998 41.0581 19.3838 40.8485 19.0718ZM36.872 25.4158C36.5 25.4158 36.1856 25.1038 36.1856 24.7398C36.1856 24.3758 36.5052 24.0638 36.872 24.0638C37.2387 24.0638 37.5583 24.3758 37.5583 24.7398C37.5583 25.1038 37.2387 25.4158 36.872 25.4158Z" fill="black"/>
<path d="M35.5466 20.1119V16.7839C35.5466 16.4199 35.227 16.1079 34.8603 16.1079C34.4935 16.1079 34.1687 16.4199 34.1687 16.7839V20.1119C34.1687 20.4759 34.4883 20.7879 34.8603 20.7879C35.2323 20.7879 35.5466 20.4759 35.5466 20.1119Z" fill="black"/>
<path d="M15.9362 24.7402C15.5642 24.7402 15.2446 25.0522 15.2446 25.4162V28.7442C15.2446 29.1082 15.5642 29.4202 15.9362 29.4202C16.3082 29.4202 16.6225 29.1082 16.6225 28.7442V25.4162C16.6225 25.0522 16.303 24.7402 15.9362 24.7402Z" fill="black"/>
<path d="M24.2037 13.4558L32.314 11.4798C32.686 11.3758 32.8956 11.0118 32.7908 10.6998C32.686 10.3358 32.314 10.1278 31.9944 10.2318L23.8841 12.2078C23.5121 12.3118 23.3025 12.6758 23.4073 12.9878C23.5121 13.3518 23.8841 13.5598 24.2037 13.4558Z" fill="black"/>
<path d="M36.872 33.3721C35.7613 33.3721 34.8601 34.2561 34.8601 35.3481C34.8601 36.4401 35.7613 37.3241 36.872 37.3241C37.9827 37.3241 38.8838 36.4401 38.8838 35.3481C38.9362 34.2561 37.9827 33.3721 36.872 33.3721ZM36.872 36.0241C36.5 36.0241 36.1856 35.7121 36.1856 35.3481C36.1856 34.9841 36.5052 34.6721 36.872 34.6721C37.2387 34.6721 37.5583 34.9841 37.5583 35.3481C37.5583 35.7121 37.2387 36.0241 36.872 36.0241Z" fill="black"/>
<path d="M15.5746 16.472C16.6853 16.472 17.5865 15.588 17.5865 14.496C17.5865 13.404 16.6853 12.52 15.5746 12.52C14.4639 12.52 13.5627 13.404 13.5627 14.496C13.5627 15.588 14.4639 16.472 15.5746 16.472ZM15.5746 13.82C15.9466 13.82 16.2609 14.132 16.2609 14.496C16.2609 14.86 15.9414 15.172 15.5746 15.172C15.2079 15.172 14.883 14.86 14.883 14.496C14.883 14.08 15.2026 13.82 15.5746 13.82Z" fill="black"/>
<path d="M25.9535 23.9079L24.5232 25.3119C24.256 25.5719 24.256 25.9879 24.5232 26.2479C24.7904 26.5079 25.2095 26.5079 25.4767 26.2479L26.907 24.8439C27.1742 24.5839 27.1742 24.1679 26.907 23.9079C26.6398 23.6479 26.2154 23.6479 25.9535 23.9079Z" fill="black"/>
<path d="M23.5696 27.1838C23.3024 26.9238 22.878 26.9238 22.6161 27.1838L21.1858 28.5878C20.9186 28.8478 20.9186 29.2638 21.1858 29.5238C21.453 29.7838 21.8721 29.7838 22.1393 29.5238L23.5696 28.1198C23.8368 27.8598 23.8368 27.4438 23.5696 27.1838Z" fill="black"/>
<path d="M25.4767 27.1838C25.2095 26.9238 24.7904 26.9238 24.5232 27.1838C24.256 27.4438 24.256 27.8598 24.5232 28.1198L25.9535 29.5238C26.2207 29.7838 26.645 29.7838 26.907 29.5238C27.1742 29.2638 27.1742 28.8478 26.907 28.5878L25.4767 27.1838Z" fill="black"/>
<path d="M22.6161 26.2479C22.8833 26.5079 23.3024 26.5079 23.5696 26.2479C23.8368 25.9879 23.8368 25.5719 23.5696 25.3119L22.1393 23.9079C21.8721 23.6479 21.453 23.6479 21.1858 23.9079C20.9186 24.1679 20.9186 24.5839 21.1858 24.8439L22.6161 26.2479Z" fill="black"/>
</g>
</g>
<defs>
<clipPath id="clip0_518_784">
<rect width="50" height="50" rx="25" fill="white"/>
</clipPath>
<clipPath id="clip1_518_784">
<rect width="53" height="52" fill="white" transform="translate(-1.5 -1)"/>
</clipPath>
</defs>
</svg>
