<svg width="50" height="50" viewBox="0 0 50 50" fill="none" xmlns="http://www.w3.org/2000/svg">
<g clip-path="url(#clip0_518_786)">
<rect width="50" height="50" rx="25" fill="white"/>
<g clip-path="url(#clip1_518_786)">
<path d="M50.5 0H-0.5V50H50.5V0Z" fill="white"/>
<path d="M35.1988 40H18.6223C18.2643 40 17.9568 39.7 17.9568 39.35V13.15C17.9568 12.8 18.2643 12.5 18.6223 12.5H35.1988C35.5567 12.5 35.8592 12.8 35.8592 13.15V39.4C35.8592 39.7 35.5517 40 35.1988 40ZM19.2877 38.75H34.5888V13.75H19.2877V38.75Z" fill="black"/>
<path d="M32.6478 13.75H21.1733C20.8153 13.75 20.5078 13.45 20.5078 13.1V10.6C20.5078 10.25 20.8153 9.94995 21.1733 9.94995H32.6478C33.0057 9.94995 33.3082 10.25 33.3082 10.6V13.1C33.3082 13.45 33.0007 13.75 32.6478 13.75ZM21.8337 12.5H32.0327V11.25H21.8337V12.5Z" fill="black"/>
<path d="M18.6224 40H10.9744C10.6165 40 10.314 39.6999 10.314 39.3499V19.35C10.314 19 10.6215 18.7 10.9744 18.7H18.6224C18.9803 18.7 19.2828 19 19.2828 19.35V39.3499C19.2828 39.6999 18.9753 40 18.6224 40ZM11.6348 38.75H18.0124V20H11.6348V38.75Z" fill="black"/>
<path d="M38.4104 40H35.1989C34.841 40 34.5334 39.7 34.5334 39.35V20.65C34.5334 20.4 34.6847 20.2 34.8914 20.1C35.0931 20 35.3502 20 35.5569 20.15L38.7683 22.6C38.9196 22.7 39.0254 22.9 39.0254 23.1V39.4C39.0254 39.7 38.7179 40 38.4154 40H38.4104ZM35.8594 38.75H37.7449V23.4L35.809 21.95V38.75H35.8594Z" fill="black"/>
<path d="M22.4488 15H21.1733V16.25H22.4488V15Z" fill="black"/>
<path d="M24.9999 15H23.7244V16.25H24.9999V15Z" fill="black"/>
<path d="M27.5509 15H26.2754V16.25H27.5509V15Z" fill="black"/>
<path d="M30.1019 15H28.8264V16.25H30.1019V15Z" fill="black"/>
<path d="M32.6478 15H31.3723V16.25H32.6478V15Z" fill="black"/>
<path d="M22.4488 17.5H21.1733V18.75H22.4488V17.5Z" fill="black"/>
<path d="M24.9999 17.5H23.7244V18.75H24.9999V17.5Z" fill="black"/>
<path d="M27.5509 17.5H26.2754V18.75H27.5509V17.5Z" fill="black"/>
<path d="M30.1019 17.5H28.8264V18.75H30.1019V17.5Z" fill="black"/>
<path d="M32.6478 17.5H31.3723V18.75H32.6478V17.5Z" fill="black"/>
<path d="M22.4488 20H21.1733V21.25H22.4488V20Z" fill="black"/>
<path d="M24.9999 20H23.7244V21.25H24.9999V20Z" fill="black"/>
<path d="M27.5509 20H26.2754V21.25H27.5509V20Z" fill="black"/>
<path d="M30.1019 20H28.8264V21.25H30.1019V20Z" fill="black"/>
<path d="M32.6478 20H31.3723V21.25H32.6478V20Z" fill="black"/>
<path d="M22.4488 22.5H21.1733V23.75H22.4488V22.5Z" fill="black"/>
<path d="M24.9999 22.5H23.7244V23.75H24.9999V22.5Z" fill="black"/>
<path d="M27.5509 22.5H26.2754V23.75H27.5509V22.5Z" fill="black"/>
<path d="M30.1019 22.5H28.8264V23.75H30.1019V22.5Z" fill="black"/>
<path d="M32.6478 22.5H31.3723V23.75H32.6478V22.5Z" fill="black"/>
<path d="M22.4488 25H21.1733V26.25H22.4488V25Z" fill="black"/>
<path d="M24.9999 25H23.7244V26.25H24.9999V25Z" fill="black"/>
<path d="M27.5509 25H26.2754V26.25H27.5509V25Z" fill="black"/>
<path d="M30.1019 25H28.8264V26.25H30.1019V25Z" fill="black"/>
<path d="M32.6478 25H31.3723V26.25H32.6478V25Z" fill="black"/>
<path d="M22.4488 27.5H21.1733V28.75H22.4488V27.5Z" fill="black"/>
<path d="M24.9999 27.5H23.7244V28.75H24.9999V27.5Z" fill="black"/>
<path d="M27.5509 27.5H26.2754V28.75H27.5509V27.5Z" fill="black"/>
<path d="M30.1019 27.5H28.8264V28.75H30.1019V27.5Z" fill="black"/>
<path d="M32.6478 27.5H31.3723V28.75H32.6478V27.5Z" fill="black"/>
<path d="M22.4488 30H21.1733V31.25H22.4488V30Z" fill="black"/>
<path d="M24.9999 30H23.7244V31.25H24.9999V30Z" fill="black"/>
<path d="M27.5509 30H26.2754V31.25H27.5509V30Z" fill="black"/>
<path d="M30.1019 30H28.8264V31.25H30.1019V30Z" fill="black"/>
<path d="M32.6478 30H31.3723V31.25H32.6478V30Z" fill="black"/>
<path d="M29.487 40H24.385C24.027 40 23.7195 39.7 23.7195 39.35V33.15C23.7195 32.8 24.027 32.5 24.385 32.5H29.487C29.8449 32.5 30.1474 32.8 30.1474 33.15V39.4C30.097 39.7 29.7895 40 29.487 40ZM25 38.75H28.8265V33.75H25V38.75Z" fill="black"/>
<path d="M13.5253 40C13.1674 40 12.8599 39.6999 12.8599 39.3499V26.85C12.8599 26.5 13.1674 26.2 13.5253 26.2C13.8833 26.2 14.1858 26.5 14.1858 26.85V39.3499C14.1858 39.6999 13.8782 40 13.5253 40Z" fill="black"/>
<path d="M16.0765 40C15.7185 40 15.416 39.6999 15.416 39.3499V26.85C15.416 26.5 15.7235 26.2 16.0765 26.2C16.4294 26.2 16.7419 26.5 16.7419 26.85V39.3499C16.7419 39.6999 16.4344 40 16.0765 40Z" fill="black"/>
<path d="M18.6225 18.1499H13.5205C13.1625 18.1499 12.855 17.8499 12.855 17.4999C12.855 17.1499 13.1625 16.8499 13.5205 16.8499H18.6225C18.9804 16.8499 19.2829 17.1499 19.2829 17.4999C19.2829 17.8499 18.9754 18.1499 18.6225 18.1499Z" fill="black"/>
<path d="M11.6399 18.1499H11.5391C11.4886 18.1499 11.4382 18.1499 11.4382 18.0999C11.3878 18.0999 11.3878 18.0499 11.3374 18.0499C11.287 18.0499 11.287 17.9999 11.2366 17.9499C11.203 17.9166 11.1694 17.8832 11.1357 17.8499C11.1357 17.7999 11.0853 17.7999 11.0853 17.7499C11.0853 17.6999 11.0349 17.6499 11.0349 17.6499V17.5499C11.0349 17.3999 11.0853 17.1999 11.2366 17.0999C11.2702 17.0666 11.3038 17.0332 11.3374 16.9999C11.3878 16.9999 11.3878 16.9499 11.4382 16.9499C11.4886 16.9499 11.5391 16.8999 11.5391 16.8999H11.7962C11.8466 16.8999 11.897 16.8999 11.897 16.9499C11.9474 16.9499 11.9474 16.9999 11.9978 16.9999C12.0483 16.9999 12.0483 17.0499 12.0987 17.0999C12.1995 17.1999 12.3003 17.3999 12.3003 17.5499V17.6499C12.3003 17.6999 12.3003 17.7499 12.2499 17.7499C12.2499 17.7999 12.1995 17.7999 12.1995 17.8499C12.1995 17.8999 12.1491 17.8999 12.0987 17.9499C12.0651 17.9832 12.0315 18.0166 11.9978 18.0499C11.9474 18.0499 11.9474 18.0999 11.897 18.0999C11.8466 18.0999 11.7962 18.1499 11.7962 18.1499C11.6954 18.0999 11.6449 18.1499 11.6449 18.1499H11.6399Z" fill="black"/>
<path d="M16.7369 22.5H10.9744C10.6165 22.5 10.314 22.2 10.314 21.85C10.314 21.5 10.6215 21.2 10.9744 21.2H16.7369C17.0948 21.2 17.3973 21.5 17.3973 21.85C17.3469 22.2 17.0393 22.5 16.7369 22.5Z" fill="black"/>
<path d="M24.3898 36.8999H18.6274C18.2694 36.8999 17.9619 36.5999 17.9619 36.2499C17.9619 35.8999 18.2694 35.5999 18.6274 35.5999H24.3898C24.7478 35.5999 25.0503 35.8999 25.0503 36.2499C24.9999 36.5999 24.6923 36.8999 24.3898 36.8999Z" fill="black"/>
<path d="M35.1989 36.8999H29.4869C29.1289 36.8999 28.8264 36.5999 28.8264 36.2499C28.8264 35.8999 29.1339 35.5999 29.4869 35.5999H35.1989C35.5568 35.5999 35.8593 35.8999 35.8593 36.2499C35.8593 36.5999 35.5518 36.8999 35.1989 36.8999Z" fill="black"/>
</g>
</g>
<defs>
<clipPath id="clip0_518_786">
<rect width="50" height="50" rx="25" fill="white"/>
</clipPath>
<clipPath id="clip1_518_786">
<rect width="51" height="50" fill="white" transform="translate(-0.5)"/>
</clipPath>
</defs>
</svg>
