<svg width="145" height="44" viewBox="0 0 145 44" fill="none" xmlns="http://www.w3.org/2000/svg">
<g clip-path="url(#clip0_519_805)">
<path d="M72.7769 15.132C75.0352 15.132 77.2917 15.1375 79.55 15.1246C79.8436 15.1246 79.9396 15.2041 79.9156 15.4962C79.8916 15.7975 79.8879 16.1044 79.9156 16.4039C79.9433 16.7108 79.8196 16.7644 79.5407 16.7626C77.8179 16.7496 76.0951 16.7533 74.3742 16.7626C74.2431 16.7626 74.0252 16.6535 73.9901 16.8661C73.9495 17.112 73.9218 17.38 74.0159 17.6204C74.0529 17.7147 74.208 17.6647 74.3095 17.6647C75.7184 17.6666 77.1255 17.6721 78.5344 17.661C78.7947 17.6592 78.8963 17.7091 78.8908 17.9994C78.8723 19.0827 78.8741 20.1661 78.8908 21.2494C78.8945 21.5194 78.828 21.5989 78.5492 21.5989C75.5116 21.5878 72.4741 21.5896 69.4366 21.5989C69.3092 21.5989 69.0839 21.4824 69.0617 21.695C69.0396 21.8965 69.1393 22.1073 69.3535 22.2126C69.5049 22.2866 69.6692 22.2829 69.8317 22.2829C72.7178 22.2829 75.604 22.2866 78.4901 22.2755C78.8058 22.2755 78.9221 22.3494 78.8908 22.6748C78.8612 22.9873 78.8686 23.3034 78.8908 23.6177C78.9055 23.8543 78.8187 23.9079 78.5953 23.9061C77.4542 23.8968 76.3149 23.9024 75.1737 23.9024C73.0908 23.9024 71.008 23.9024 68.9232 23.9024C67.603 23.9024 66.6889 23.0039 66.6649 21.6784C66.6575 21.2236 66.6815 20.7688 66.6575 20.3158C66.6428 20.0311 66.7425 19.9701 67.0102 19.972C69.1282 19.9831 71.2462 19.9775 73.3641 19.9775C74.3077 19.9775 75.2494 19.9664 76.1911 19.9831C76.4718 19.9886 76.5641 19.9239 76.5697 19.6244C76.5771 19.2935 76.4312 19.2842 76.1764 19.2842C73.1499 19.2916 70.1253 19.2898 67.0989 19.2879C66.5929 19.2879 66.6686 19.3508 66.6631 18.835C66.6594 18.5558 66.6797 18.2748 66.6575 17.9957C66.6372 17.735 66.7203 17.6592 66.9844 17.6629C68.3933 17.6758 69.8003 17.661 71.2092 17.6758C71.5139 17.6795 71.6709 17.6185 71.6118 17.2839C71.597 17.2044 71.5988 17.1194 71.6118 17.0399C71.6487 16.7977 71.5324 16.7552 71.3145 16.757C70.2897 16.7663 69.2667 16.7607 68.2419 16.7607C67.4977 16.7607 66.7517 16.7459 66.0076 16.7681C65.7214 16.7773 65.6512 16.6794 65.6678 16.415C65.69 16.0896 65.6844 15.7624 65.6678 15.437C65.6567 15.2078 65.6992 15.119 65.9651 15.1209C68.2345 15.1338 70.5039 15.1283 72.7732 15.1283V15.1357L72.7769 15.132Z" fill="black"/>
<path d="M104.755 17.8959C102.486 17.8959 100.216 17.8903 97.9468 17.9033C97.6569 17.9033 97.5591 17.8349 97.5831 17.5391C97.6108 17.2155 97.6034 16.8865 97.5831 16.5611C97.5683 16.3281 97.6495 16.2708 97.8748 16.2727C99.6438 16.2819 101.413 16.269 103.182 16.2856C103.512 16.2893 103.658 16.2191 103.595 15.8734C103.581 15.7939 103.584 15.7088 103.595 15.6293C103.625 15.4149 103.544 15.3483 103.326 15.3539C102.663 15.3668 101.998 15.3261 101.337 15.3649C100.148 15.4352 99.1138 14.546 99.0769 13.1779C99.0418 11.9097 99.0732 10.6377 99.0621 9.36764C99.0603 9.10327 99.2136 9.13285 99.3779 9.1347C101.007 9.1347 102.637 9.1347 104.266 9.1347C106.278 9.1347 108.293 9.13839 110.306 9.12915C110.557 9.12915 110.664 9.17537 110.644 9.45268C110.618 9.78915 110.625 10.1293 110.644 10.4658C110.656 10.695 110.581 10.7616 110.352 10.7579C109.094 10.7468 107.839 10.7523 106.581 10.7523C104.975 10.7523 103.368 10.7597 101.764 10.7449C101.476 10.7413 101.426 10.8374 101.424 11.0981C101.422 11.368 101.488 11.4493 101.771 11.4475C104.576 11.4364 107.381 11.4401 110.186 11.4419C110.712 11.4419 110.636 11.3865 110.642 11.9134C110.645 12.2276 110.636 12.5419 110.645 12.8562C110.649 13.006 110.596 13.067 110.444 13.0596C110.235 13.0522 110.025 13.0577 109.816 13.0577C107.139 13.0577 104.463 13.0577 101.786 13.0577C101.684 13.0577 101.538 13.0078 101.492 13.0965C101.435 13.2093 101.518 13.3406 101.583 13.4534C101.701 13.6586 101.887 13.7233 102.113 13.7233C104.836 13.7233 107.558 13.7307 110.282 13.7233C110.564 13.7233 110.677 13.7806 110.649 14.0801C110.621 14.3814 110.625 14.6865 110.649 14.9878C110.671 15.2707 110.59 15.3649 110.291 15.3612C108.976 15.3446 107.661 15.3631 106.347 15.3465C106.048 15.3428 105.907 15.4056 105.964 15.7255C105.979 15.8049 105.977 15.89 105.964 15.9695C105.928 16.2154 106.027 16.2801 106.271 16.2782C108.051 16.2671 109.833 16.2782 111.613 16.2653C111.901 16.2634 112.003 16.3337 111.977 16.6295C111.951 16.9419 111.951 17.2599 111.977 17.5723C111.999 17.8478 111.892 17.8977 111.641 17.8959C109.685 17.8866 107.73 17.8903 105.776 17.8903C105.438 17.8903 105.1 17.8903 104.764 17.8903L104.755 17.8959Z" fill="black"/>
<path d="M101.956 35.2296C102.678 33.0185 103.376 30.8869 104.072 28.7535C104.242 28.2321 104.238 28.2303 104.764 28.2303C105.194 28.2303 105.626 28.2488 106.055 28.2229C106.347 28.2063 106.422 28.2932 106.422 28.5871C106.411 31.3251 106.415 34.0631 106.415 36.8011C106.415 37.3384 106.146 37.6071 105.608 37.6071C105.07 37.6071 104.808 37.3433 104.821 36.8158C104.82 35.1853 104.818 33.5547 104.81 31.9222C104.81 31.8002 104.844 31.6671 104.742 31.5248C104.33 32.7449 103.926 33.9429 103.521 35.1427C103.276 35.8693 103.021 36.594 102.79 37.3261C102.724 37.5387 102.631 37.6293 102.402 37.6145C102.09 37.5942 101.773 37.5942 101.461 37.6145C101.232 37.6293 101.143 37.5387 101.073 37.3279C100.456 35.4626 99.8266 33.6009 99.2006 31.7374C99.1692 31.6431 99.1378 31.5488 99.0547 31.4637V33.2293C99.0547 34.5918 99.0492 35.9562 99.0603 37.3187C99.0603 37.5424 99.0067 37.6274 98.7722 37.6145C98.4232 37.596 98.0742 37.596 97.7252 37.6145C97.4926 37.6274 97.4316 37.5442 97.4335 37.3187C97.4427 36.1429 97.439 34.9653 97.439 33.7895C97.439 32.0646 97.4482 30.3416 97.4298 28.6167C97.4261 28.2821 97.5313 28.21 97.8379 28.2247C98.3143 28.2488 98.7925 28.2506 99.2689 28.2247C99.5514 28.2081 99.6696 28.3042 99.7564 28.5723C100.441 30.6854 101.145 32.7911 101.843 34.9005C101.873 34.9874 101.904 35.0743 101.957 35.2315L101.956 35.2296Z" fill="black"/>
<path d="M53.6894 10.7783C53.4345 11.7415 53.2019 12.627 52.9674 13.5126C52.3636 15.805 51.7561 18.0956 51.1615 20.3899C51.1005 20.6228 51.0119 20.7079 50.7645 20.6986C50.1957 20.6783 49.6252 20.6783 49.0546 20.6986C48.7776 20.7079 48.7241 20.6431 48.7961 20.3732C49.5236 17.6463 50.2401 14.9139 50.9602 12.1852C51.2039 11.2645 51.4588 10.3457 51.6859 9.42129C51.7431 9.19205 51.8391 9.12734 52.0644 9.13289C52.7162 9.14583 53.3662 9.13659 54.018 9.13844C54.9801 9.13844 55.7833 9.73003 56.0307 10.6599C56.8912 13.9045 57.7388 17.1546 58.5974 20.401C58.6602 20.6376 58.6085 20.706 58.3647 20.7005C57.796 20.6857 57.2236 20.6801 56.6549 20.7023C56.3742 20.7134 56.2856 20.6043 56.2191 20.3492C55.4214 17.2914 54.6126 14.2373 53.8057 11.1813C53.778 11.0741 53.7429 10.9687 53.6875 10.782L53.6894 10.7783Z" fill="black"/>
<path d="M133.991 10.8448C133.258 13.6271 132.532 16.3799 131.807 19.1327C131.694 19.5597 131.561 19.9831 131.474 20.4139C131.426 20.6579 131.31 20.7004 131.092 20.6967C130.522 20.6856 129.951 20.6819 129.382 20.6967C129.114 20.7041 129.046 20.6523 129.124 20.3676C129.897 17.4707 130.654 14.57 131.417 11.6712C131.613 10.9298 131.825 10.1922 131.997 9.44528C132.058 9.17906 132.18 9.1236 132.423 9.131C133.04 9.14579 133.657 9.13654 134.274 9.13654C135.337 9.13654 136.107 9.72999 136.381 10.7653C137.139 13.653 137.897 16.5426 138.654 19.4303C138.746 19.7797 138.831 20.1291 138.932 20.4749C138.98 20.6412 138.951 20.6986 138.764 20.6949C138.126 20.6856 137.485 20.6801 136.846 20.6967C136.602 20.7041 136.595 20.5433 136.556 20.3917C136.111 18.7056 135.67 17.0196 135.226 15.3354C134.857 13.9303 134.484 12.5271 134.115 11.1221C134.091 11.0333 134.085 10.9372 133.991 10.8429V10.8448Z" fill="black"/>
<path d="M88.6847 22.7783C86.4615 22.7783 84.2401 22.7727 82.0169 22.7838C81.7418 22.7838 81.6495 22.7136 81.6716 22.4363C81.6956 22.1238 81.6975 21.8058 81.6716 21.4934C81.6458 21.2013 81.7676 21.1458 82.028 21.1532C82.6447 21.1699 83.2615 21.1458 83.8782 21.1643C84.1275 21.1717 84.1884 21.0922 84.1866 20.85C84.1773 19.0568 84.1866 17.2616 84.1737 15.4684C84.1718 15.1929 84.2494 15.1097 84.519 15.1189C85.0766 15.1356 85.6361 15.1393 86.1937 15.1171C86.4652 15.106 86.552 15.1689 86.5501 15.4573C86.5372 17.2284 86.552 18.9994 86.5354 20.7687C86.5317 21.0959 86.6277 21.1902 86.9416 21.1662C87.2887 21.1384 87.6396 21.144 87.9886 21.1662C88.2452 21.181 88.2951 21.0811 88.2951 20.8463C88.2859 19.0752 88.2969 17.3042 88.284 15.5349C88.2822 15.228 88.3431 15.106 88.6792 15.1226C89.2368 15.1504 89.7963 15.1374 90.354 15.1152C90.594 15.106 90.6402 15.1818 90.6402 15.4092C90.6309 17.2025 90.6402 18.9976 90.6291 20.7909C90.6272 21.0737 90.6937 21.1699 90.9929 21.1662C92.435 21.1495 93.879 21.1662 95.3211 21.1532C95.5815 21.1514 95.6701 21.2179 95.6516 21.4823C95.6276 21.8077 95.6276 22.1349 95.6516 22.4603C95.6719 22.7302 95.5741 22.7857 95.3193 22.7838C93.109 22.7746 90.8968 22.7783 88.6866 22.7783H88.6847Z" fill="black"/>
<path d="M140.265 16.5186C140.265 14.1762 140.271 11.8357 140.258 9.49335C140.258 9.1994 140.341 9.11806 140.627 9.12915C141.185 9.15133 141.745 9.14948 142.302 9.12915C142.557 9.1199 142.64 9.18276 142.635 9.45268C142.618 10.5471 142.635 11.6434 142.622 12.7379C142.618 12.9967 142.681 13.0781 142.947 13.067C143.528 13.0448 144.11 13.0725 144.692 13.054C144.945 13.0466 145.009 13.1317 144.996 13.372C144.978 13.7196 144.98 14.0708 144.996 14.4202C145.005 14.6254 144.928 14.6754 144.734 14.6735C144.152 14.6624 143.569 14.6865 142.989 14.6624C142.705 14.6513 142.62 14.7197 142.622 15.0192C142.635 17.8497 142.622 20.6819 142.638 23.5123C142.638 23.8433 142.54 23.9172 142.234 23.9043C141.7 23.8802 141.163 23.8821 140.629 23.9043C140.345 23.9172 140.258 23.8414 140.26 23.5438C140.273 21.2014 140.267 18.8609 140.267 16.5186H140.265Z" fill="black"/>
<path d="M87.9536 9.14753C89.4881 9.14753 91.0244 9.14753 92.5589 9.14753C93.8348 9.14753 94.7562 10.0627 94.7562 11.342C94.7562 13.9265 94.7507 16.5111 94.7599 19.0956C94.7599 19.3895 94.7064 19.5097 94.3814 19.4912C93.8717 19.4616 93.3565 19.4616 92.8469 19.4912C92.5071 19.5097 92.3982 19.4302 92.4 19.0623C92.4204 16.6645 92.4111 14.2648 92.4093 11.867C92.4093 11.098 92.0788 10.767 91.3069 10.767C88.5851 10.767 85.8634 10.7615 83.1434 10.7744C82.8572 10.7744 82.752 10.7097 82.7797 10.4121C82.8074 10.0996 82.8037 9.78165 82.7797 9.46921C82.7594 9.20669 82.8424 9.13829 83.1047 9.14199C84.7204 9.15493 86.3379 9.14938 87.9536 9.14938V9.14753Z" fill="black"/>
<path d="M62.9811 16.5092C62.9811 18.8515 62.9756 21.192 62.9885 23.5344C62.9885 23.8191 62.9276 23.9189 62.6266 23.9041C62.08 23.8782 61.5316 23.8764 60.9869 23.9041C60.6804 23.9189 60.6305 23.8098 60.6324 23.5307C60.6434 20.7113 60.6324 17.892 60.6471 15.0727C60.649 14.7233 60.5493 14.6456 60.2224 14.6604C59.6537 14.6881 59.0813 14.6604 58.5125 14.6715C58.3353 14.6752 58.2651 14.6271 58.2725 14.4386C58.2854 14.054 58.2873 13.6695 58.2725 13.285C58.2651 13.089 58.3464 13.0539 58.5181 13.0576C59.1237 13.065 59.7294 13.0502 60.3332 13.0668C60.577 13.0742 60.649 13.0039 60.6453 12.7562C60.6324 11.6618 60.6508 10.5655 60.6324 9.47101C60.6287 9.1863 60.7191 9.11975 60.985 9.12899C61.5667 9.14748 62.1483 9.14378 62.73 9.12899C62.9516 9.12344 62.9959 9.20109 62.9959 9.41185C62.9885 11.7764 62.9904 14.1409 62.9904 16.5073C62.9885 16.5073 62.9848 16.5073 62.983 16.5073L62.9811 16.5092Z" fill="black"/>
<path d="M65.9448 30.2769C65.2708 29.9349 64.595 29.7463 63.8896 29.6594C63.5074 29.6132 63.1252 29.5854 62.7485 29.7019C62.3736 29.8184 62.117 30.0532 62.0653 30.4562C62.0173 30.8241 62.2167 31.0718 62.5029 31.2696C63.1769 31.7337 63.9561 31.9962 64.6615 32.4011C64.8424 32.5046 65.0289 32.6007 65.2099 32.7061C66.231 33.2996 66.6373 34.2054 66.4988 35.3535C66.3677 36.448 65.7269 37.1449 64.6966 37.4888C63.4982 37.89 62.2906 37.7957 61.0866 37.5054C60.3572 37.3298 60.3536 37.3298 60.3572 36.5737C60.3572 36.2723 60.2575 35.8323 60.4108 35.7048C60.6047 35.5421 60.9444 35.8471 61.227 35.9359C62.0597 36.1965 62.9017 36.3278 63.7659 36.1355C64.2423 36.0301 64.6061 35.7713 64.6892 35.2574C64.7723 34.736 64.5765 34.3201 64.1315 34.0317C63.5148 33.6342 62.8205 33.3846 62.1798 33.0278C61.6923 32.756 61.2362 32.4454 60.83 32.0498C59.8956 31.1402 60.1227 29.2175 61.4578 28.5224C62.4457 28.0066 63.4889 27.9974 64.5507 28.1878C64.9495 28.2599 65.341 28.3764 65.7362 28.4725C65.8525 28.5021 65.9504 28.5354 65.9467 28.6944C65.9393 29.2028 65.943 29.713 65.943 30.275L65.9448 30.2769Z" fill="black"/>
<path d="M119.714 9.13646C121.191 9.13646 122.672 9.18267 124.147 9.12167C125.336 9.0736 126.398 9.99612 126.4 11.3901C126.4 12.6712 126.387 13.9524 126.393 15.2336C126.393 15.4702 126.334 15.5627 126.082 15.5553C125.512 15.5386 124.941 15.5368 124.373 15.5553C124.114 15.5645 124.035 15.4924 124.038 15.2262C124.053 14.0855 124.046 12.943 124.044 11.8005C124.044 11.0924 123.704 10.7541 122.997 10.7541C120.332 10.7541 117.668 10.7504 115.003 10.7596C114.739 10.7596 114.627 10.7079 114.651 10.4195C114.676 10.096 114.671 9.76688 114.651 9.4415C114.636 9.19377 114.724 9.12906 114.966 9.13091C116.549 9.14015 118.131 9.13646 119.714 9.13646Z" fill="black"/>
<path d="M120.517 17.8958C118.353 17.8958 116.189 17.8902 114.025 17.9013C113.74 17.9013 113.631 17.8366 113.655 17.539C113.681 17.2154 113.676 16.8864 113.655 16.561C113.642 16.3262 113.725 16.2689 113.951 16.2707C115.325 16.28 116.697 16.2633 118.07 16.2837C118.392 16.2892 118.456 16.1894 118.447 15.8917C118.423 15.1818 118.44 14.47 118.425 13.7601C118.419 13.5216 118.462 13.4015 118.744 13.4126C119.326 13.4348 119.908 13.4311 120.489 13.4126C120.726 13.4052 120.781 13.4884 120.777 13.7121C120.764 14.446 120.787 15.18 120.766 15.9139C120.759 16.1986 120.825 16.2837 121.123 16.2818C123.089 16.267 125.056 16.2818 127.022 16.267C127.334 16.2652 127.432 16.3428 127.403 16.6516C127.375 16.94 127.371 17.2358 127.403 17.5242C127.438 17.8514 127.301 17.9013 127.011 17.8995C124.847 17.8884 122.683 17.8939 120.519 17.8939L120.517 17.8958Z" fill="black"/>
<path d="M86.8937 36.7734C86.3619 37.4777 85.7119 37.7255 84.9567 37.7273C83.6143 37.7329 82.6818 36.7789 82.6799 35.3961C82.6799 33.9984 82.691 32.6026 82.6799 31.205C82.6799 30.9683 82.7353 30.9055 82.9698 30.9221C83.293 30.9461 83.6217 30.9443 83.9448 30.9184C84.2088 30.8962 84.2846 30.9813 84.2827 31.2456C84.2698 32.4214 84.2753 33.5972 84.279 34.773C84.279 35.006 84.2919 35.2389 84.3196 35.47C84.3861 36.0357 84.7776 36.3315 85.3426 36.2539C85.9464 36.1688 86.3065 35.7843 86.5502 35.2592C86.7958 34.7305 86.8623 34.1666 86.8697 33.5935C86.8789 32.8023 86.8808 32.011 86.8697 31.2179C86.866 30.9997 86.9122 30.9018 87.1541 30.9147C87.5141 30.935 87.8742 30.9313 88.2343 30.9258C88.4115 30.9221 88.4835 30.9794 88.4817 31.1643C88.478 33.2367 88.478 35.3092 88.4817 37.3816C88.4817 37.5498 88.4226 37.6053 88.2583 37.5997C87.9093 37.5905 87.5584 37.5794 87.2113 37.6034C86.9472 37.6219 86.8494 37.5387 86.8863 37.2762C86.9048 37.1505 86.89 37.0211 86.89 36.7715L86.8937 36.7734Z" fill="black"/>
<path d="M117.699 28.6648C117.699 29.3803 117.706 30.0329 117.695 30.6836C117.692 30.8907 117.738 30.972 117.963 30.9628C118.393 30.9443 118.824 30.9665 119.254 30.9535C119.453 30.948 119.518 31.0145 119.509 31.2124C119.494 31.5137 119.494 31.8187 119.509 32.1201C119.52 32.3308 119.427 32.3734 119.241 32.3697C118.811 32.3604 118.38 32.3752 117.95 32.3623C117.749 32.3567 117.694 32.4251 117.695 32.6211C117.705 33.5991 117.694 34.5771 117.703 35.555C117.708 36.1411 117.991 36.374 118.571 36.3093C118.803 36.2834 119.032 36.2502 119.25 36.167C119.409 36.106 119.459 36.1522 119.457 36.3149C119.451 36.6994 119.451 37.084 119.457 37.4666C119.461 37.609 119.418 37.6792 119.27 37.694C118.587 37.768 117.902 37.8382 117.234 37.6293C116.443 37.3834 116.034 36.7715 116.026 35.8324C116.017 34.7841 116.015 33.7359 116.03 32.6895C116.034 32.427 115.963 32.3549 115.701 32.3604C114.95 32.3715 114.948 32.3604 114.948 31.6117C114.948 30.9591 114.948 30.9313 115.588 30.9683C115.971 30.9905 116.087 30.8519 116.021 30.508C115.901 29.8868 116.124 29.4819 116.72 29.2416C117.047 29.1085 117.337 28.8829 117.699 28.6666V28.6648Z" fill="black"/>
<path d="M122.797 31.8224C123.477 30.9923 124.324 30.8019 125.255 30.8148C125.432 30.8167 125.467 30.8888 125.464 31.0441C125.456 31.4397 125.454 31.8353 125.464 32.2309C125.469 32.414 125.405 32.4731 125.224 32.4713C124.993 32.4694 124.758 32.4787 124.531 32.5212C123.357 32.7431 122.875 33.342 122.812 34.7286C122.775 35.5772 122.79 36.4276 122.801 37.2762C122.805 37.5368 122.757 37.6552 122.463 37.633C122.105 37.6052 121.743 37.62 121.383 37.6293C121.196 37.6348 121.145 37.5572 121.147 37.3815C121.152 35.3109 121.152 33.2385 121.147 31.1679C121.147 30.9904 121.215 30.9535 121.374 30.9553C121.769 30.9627 122.164 30.9664 122.559 30.9553C122.736 30.9498 122.814 30.9978 122.799 31.1883C122.784 31.3713 122.795 31.5562 122.795 31.8242L122.797 31.8224Z" fill="black"/>
<path d="M90.1584 32.952C90.1584 31.4859 90.1657 30.0199 90.1528 28.5538C90.151 28.2913 90.2211 28.2063 90.4833 28.2248C90.7954 28.2469 91.113 28.2506 91.4232 28.2248C91.7205 28.2007 91.8147 28.2784 91.811 28.5982C91.7944 30.996 91.8018 33.392 91.8018 35.7898C91.8018 36.2908 91.7907 36.7918 91.8073 37.291C91.8147 37.5387 91.763 37.6515 91.486 37.6311C91.1278 37.6071 90.764 37.6108 90.4058 37.6311C90.175 37.6441 90.1399 37.5516 90.1399 37.3501C90.1473 35.8841 90.1436 34.418 90.1436 32.952C90.1473 32.952 90.1528 32.952 90.1565 32.952H90.1584Z" fill="black"/>
<path d="M109.349 19.8147C109.008 19.4727 108.611 19.2139 108.18 19.0031C107.189 18.5188 106.127 18.3339 105.039 18.3135C103.531 18.284 102.065 18.4836 100.77 19.3451C99.8913 19.9312 99.3097 20.7114 99.3355 21.8243C99.3595 22.8319 99.8969 23.5529 100.685 24.1056C101.834 24.9117 103.149 25.1502 104.517 25.189C105.1 25.1983 105.68 25.1835 106.256 25.0873C107.373 24.9006 108.424 24.5512 109.277 23.7655C110.501 22.6396 110.527 20.9868 109.351 19.8147H109.349ZM107.06 23.0038C106.934 23.0851 106.797 23.1554 106.661 23.2146C106.053 23.4808 105.414 23.5751 104.755 23.5584C104.085 23.5751 103.435 23.4678 102.82 23.1942C102.552 23.0741 102.305 22.9188 102.102 22.708C101.459 22.0499 101.57 21.1458 102.366 20.5783C103.11 20.0477 103.976 19.922 104.855 19.9349C105.612 19.946 106.36 20.068 107.028 20.4766C108.119 21.144 108.136 22.3105 107.061 23.0038H107.06Z" fill="black"/>
<path d="M77.5373 9.51358C77.1384 9.05879 76.6547 8.72232 76.1081 8.47829C74.5847 7.79795 72.9856 7.70921 71.3607 7.93291C70.4079 8.06232 69.5068 8.35812 68.7054 8.91459C67.6233 9.66703 67.1303 10.7929 67.435 11.9225C67.6916 12.8746 68.3656 13.4847 69.2039 13.9321C70.4633 14.605 71.8315 14.7344 73.222 14.7196C73.6005 14.679 73.9717 14.6568 74.3373 14.5939C75.5375 14.385 76.6584 13.9949 77.5096 13.0632C78.4643 12.0186 78.4698 10.5748 77.5391 9.51358H77.5373ZM75.3399 12.3366C74.7657 12.821 73.872 13.0853 72.8434 13.0909C71.9903 13.0779 71.2111 12.9781 70.5187 12.5418C69.4311 11.8559 69.4218 10.7116 70.5039 10.0146C71.0431 9.66702 71.6524 9.52837 72.2858 9.484C73.0798 9.42854 73.8627 9.46921 74.6106 9.77795C74.8802 9.88887 75.1313 10.0312 75.3529 10.2235C76.0508 10.8299 76.0472 11.7413 75.3399 12.3366Z" fill="black"/>
<path d="M124.93 19.6446C124.592 19.3543 124.221 19.1159 123.813 18.9421C122.166 18.2395 120.458 18.1582 118.718 18.4817C117.721 18.6666 116.796 19.0308 116.034 19.7259C114.881 20.7779 114.772 22.3345 115.768 23.5029C116.111 23.9059 116.536 24.2128 117.008 24.4495C118.192 25.0411 119.455 25.2278 120.764 25.189C121.008 25.1779 121.254 25.1779 121.496 25.152C122.751 25.017 123.942 24.699 124.93 23.8579C126.319 22.6747 126.317 20.8333 124.93 19.6446ZM123.115 22.7782C122.546 23.2922 121.837 23.4641 121.1 23.5417C120.905 23.5621 120.705 23.5454 120.509 23.5454C119.97 23.5769 119.446 23.5011 118.933 23.3347C118.689 23.2552 118.458 23.1498 118.242 23.0093C117.165 22.3179 117.169 21.1624 118.259 20.4858C118.984 20.0347 119.802 19.9219 120.633 19.9348C121.165 19.9441 121.699 20.0051 122.205 20.1974C122.554 20.3305 122.882 20.4969 123.152 20.7649C123.783 21.3898 123.78 22.1774 123.117 22.7764L123.115 22.7782Z" fill="black"/>
<path d="M109.822 34.7969C110.891 34.8136 111.962 34.808 113.031 34.8006C113.328 34.7988 113.707 34.9282 113.903 34.7415C114.087 34.564 113.949 34.1869 113.958 33.8985C113.999 32.5858 113.365 31.4988 112.302 31.0274C111.192 30.5356 109.552 30.8018 108.705 31.6134C107.619 32.6524 107.443 34.6749 108.26 36.1188C109.342 38.0322 112.359 38.0211 113.627 37.2872C113.718 37.2336 113.759 37.1652 113.759 37.0616C113.757 36.6679 113.759 36.2759 113.759 35.8452C113.653 35.884 113.598 35.8969 113.552 35.9247C112.902 36.287 112.208 36.4275 111.471 36.3388C110.651 36.2408 109.979 35.9173 109.626 35.1075C109.53 34.8857 109.526 34.7914 109.822 34.7951V34.7969ZM109.517 33.4048C109.624 32.6894 110.15 32.242 110.902 32.2106C111.587 32.181 112.086 32.5304 112.228 33.146C112.256 33.2625 112.326 33.4085 112.097 33.4067C111.238 33.403 110.379 33.4067 109.519 33.4067L109.517 33.4048Z" fill="black"/>
<path d="M73.7058 33.7987C73.6633 32.5582 73.2183 31.5525 72.018 31.0219C70.9064 30.5302 69.2963 30.8075 68.4561 31.6135C67.2928 32.7302 67.1765 34.9135 68.1514 36.3481C69.2353 37.9436 72.0476 38.0434 73.3642 37.291C73.4509 37.2411 73.51 37.1893 73.5082 37.0784C73.5045 36.6772 73.5082 36.2742 73.5082 35.8379C73.4214 35.8712 73.3771 35.8804 73.3401 35.9026C72.6846 36.2816 71.9774 36.4239 71.2277 36.3389C70.4374 36.2483 69.7671 35.9544 69.4052 35.1853C69.2372 34.8285 69.2538 34.8044 69.6397 34.8044C70.8954 34.8044 72.151 34.7971 73.4066 34.81C73.6559 34.8118 73.7316 34.7397 73.7095 34.4976C73.6891 34.2665 73.7113 34.0317 73.7039 33.7987H73.7058ZM71.9756 33.355C71.9165 33.49 71.6358 33.4013 71.4549 33.4013C70.7255 33.4087 69.9961 33.405 69.2427 33.405C69.4717 32.4935 70.2694 32.0202 71.1151 32.2476C71.3958 32.3234 71.621 32.4787 71.7798 32.7191C71.9091 32.9132 72.0624 33.1517 71.9737 33.355H71.9756Z" fill="black"/>
<path d="M78.1633 30.8074C76.8449 30.8001 75.8256 31.3621 75.2698 32.4048C74.9965 32.9187 74.8765 33.4752 74.8488 34.0483C74.762 35.8434 75.5726 37.4167 77.5927 37.7106C79.0662 37.9251 80.4401 37.3261 81.0494 36.1559C81.3799 35.5199 81.4686 34.8359 81.463 34.1278C81.4464 32.1237 80.1594 30.8185 78.1633 30.8074ZM79.5482 35.4145C79.3063 35.9802 78.8816 36.2982 78.263 36.3278C77.6167 36.3574 77.0831 36.1244 76.7987 35.5236C76.3999 34.6769 76.4109 33.808 76.832 32.9686C77.1108 32.414 77.6038 32.1885 78.215 32.2162C78.8133 32.2439 79.249 32.5249 79.5094 33.0685C79.6941 33.453 79.7421 33.869 79.7532 34.2128C79.7402 34.6732 79.7014 35.0559 79.5482 35.4127V35.4145Z" fill="black"/>
<path d="M132.704 33.9595C132.693 33.8208 132.673 33.6822 132.652 33.5435C132.462 32.3196 131.856 31.3953 130.647 31.0126C129.369 30.6077 128.132 30.6909 127.092 31.6559C126.261 32.4287 126.047 33.4492 126.097 34.5289C126.154 35.7916 126.609 36.8786 127.837 37.4074C129.148 37.9731 130.46 37.9176 131.618 36.9933C132.477 36.3074 132.693 35.3183 132.706 34.2719C132.706 34.1665 132.713 34.0612 132.706 33.9576L132.704 33.9595ZM130.898 35.0983C130.704 35.8637 130.204 36.3037 129.493 36.3277C128.703 36.3554 128.13 35.9561 127.901 35.1889C127.689 34.4753 127.709 33.7654 128.016 33.0776C128.289 32.4657 128.778 32.1939 129.436 32.2143C130.082 32.2346 130.529 32.5526 130.787 33.1442C130.953 33.525 130.983 33.9299 130.989 34.3366C130.981 34.5936 130.961 34.8469 130.898 35.0965V35.0983Z" fill="black"/>
<path d="M18.9269 16.1821C18.1569 17.1268 17.7045 18.2268 17.4404 19.1346H43.7608C43.5318 17.369 43.0923 15.6719 42.4719 14.0635H22.8766C21.3255 14.3278 20.5869 14.143 18.925 16.1821H18.9269Z" fill="black"/>
<path d="M25.0203 27.8179C25.7903 26.8732 26.2427 25.7732 26.5067 24.8655H0.18457C0.413539 26.631 0.853011 28.3282 1.47344 29.9366H21.0687C22.6198 29.6722 23.3584 29.8571 25.0203 27.8179Z" fill="black"/>
<path d="M15.0492 20.9832H8.21702C8.21702 20.2696 9.87889 16.0397 13.018 13.64C16.1571 11.2385 20.3357 10.8151 21.3273 10.8151H40.8968C37.0726 4.34269 30.03 0 21.9736 0C9.83827 0 0 9.85008 0 22C0 22.3402 0.00923261 22.6803 0.0240048 23.0168H35.7302C35.7302 23.7304 34.0683 27.9603 30.9292 30.36C27.7902 32.7615 23.6115 33.1849 22.6199 33.1849H3.05045C6.8746 39.6573 13.9172 44 21.9736 44C34.109 44 43.9472 34.1499 43.9472 22C43.9472 21.6598 43.938 21.3197 43.9232 20.9832H15.0492Z" fill="black"/>
</g>
<defs>
<clipPath id="clip0_519_805">
<rect width="145" height="44" fill="white"/>
</clipPath>
</defs>
</svg>
