<svg width="34" height="34" viewBox="0 0 34 34" fill="none" xmlns="http://www.w3.org/2000/svg">
<path d="M14.6429 12.5043C14.0472 13.2343 13.6972 14.0843 13.4929 14.7858H33.8558C33.6786 13.4215 33.3386 12.11 32.8586 10.8672H17.6986C16.4986 11.0715 15.9272 10.9286 14.6415 12.5043H14.6429Z" fill="#12288A"/>
<path d="M19.3571 21.4958C19.9528 20.7658 20.3028 19.9158 20.5071 19.2144H0.142822C0.319965 20.5786 0.659965 21.8901 1.13997 23.1329H16.3C17.5 22.9286 18.0714 23.0715 19.3571 21.4958Z" fill="#12288A"/>
<path d="M11.6429 16.2143H6.35714C6.35714 15.6629 7.64286 12.3943 10.0714 10.54C12.5 8.68429 15.7329 8.35714 16.5 8.35714H31.64C28.6814 3.35571 23.2329 0 17 0C7.61143 0 0 7.61143 0 17C0 17.2629 0.00714286 17.5257 0.0185714 17.7857H27.6429C27.6429 18.3371 26.3571 21.6057 23.9286 23.46C21.5 25.3157 18.2671 25.6429 17.5 25.6429H2.36C5.31857 30.6443 10.7671 34 17 34C26.3886 34 34 26.3886 34 17C34 16.7371 33.9929 16.4743 33.9814 16.2143H11.6429Z" fill="#12288A"/>
</svg>
