<svg width="125" height="38" viewBox="0 0 125 38" fill="none" xmlns="http://www.w3.org/2000/svg">
<g clip-path="url(#clip0_518_796)">
<path d="M62.7387 13.0684C64.6855 13.0684 66.6307 13.0732 68.5775 13.0621C68.8306 13.0621 68.9134 13.1307 68.8927 13.383C68.872 13.6432 68.8688 13.9083 68.8927 14.1669C68.9166 14.432 68.8099 14.4783 68.5695 14.4767C67.0844 14.4655 65.5992 14.4687 64.1156 14.4767C64.0026 14.4767 63.8147 14.3825 63.7845 14.5661C63.7495 14.7784 63.7256 15.01 63.8068 15.2175C63.8386 15.2989 63.9723 15.2558 64.0599 15.2558C65.2744 15.2574 66.4874 15.2622 67.702 15.2526C67.9264 15.251 68.014 15.2942 68.0092 15.5448C67.9933 16.4805 67.9949 17.4161 68.0092 18.3517C68.0124 18.5848 67.9551 18.6535 67.7147 18.6535C65.0962 18.6439 62.4776 18.6455 59.859 18.6535C59.7492 18.6535 59.555 18.5529 59.5359 18.7365C59.5168 18.9105 59.6028 19.0926 59.7874 19.1836C59.9179 19.2474 60.0596 19.2442 60.1997 19.2442C62.6877 19.2442 65.1758 19.2474 67.6638 19.2379C67.936 19.2379 68.0363 19.3017 68.0092 19.5827C67.9837 19.8526 67.9901 20.1256 68.0092 20.397C68.0219 20.6014 67.9471 20.6477 67.7545 20.6461C66.7708 20.6381 65.7886 20.6429 64.8049 20.6429C63.0093 20.6429 61.2137 20.6429 59.4165 20.6429C58.2784 20.6429 57.4904 19.8669 57.4697 18.7221C57.4633 18.3294 57.484 17.9366 57.4633 17.5454C57.4506 17.2995 57.5366 17.2468 57.7674 17.2484C59.5932 17.258 61.419 17.2532 63.2449 17.2532C64.0583 17.2532 64.8701 17.2437 65.682 17.258C65.9239 17.2628 66.0035 17.2069 66.0083 16.9483C66.0147 16.6625 65.8889 16.6545 65.6692 16.6545C63.0602 16.6609 60.4528 16.6593 57.8438 16.6577C57.4076 16.6577 57.4729 16.712 57.4681 16.2665C57.4649 16.0254 57.4824 15.7827 57.4633 15.5416C57.4458 15.3165 57.5175 15.251 57.7451 15.2542C58.9597 15.2654 60.1726 15.2526 61.3872 15.2654C61.6499 15.2686 61.7852 15.2159 61.7342 14.9269C61.7215 14.8583 61.7231 14.7848 61.7342 14.7162C61.7661 14.507 61.6658 14.4703 61.4779 14.4719C60.5945 14.4799 59.7126 14.4751 58.8291 14.4751C58.1876 14.4751 57.5445 14.4623 56.903 14.4815C56.6563 14.4894 56.5958 14.4048 56.6101 14.1765C56.6292 13.8955 56.6244 13.6129 56.6101 13.3319C56.6006 13.1339 56.6372 13.0573 56.8664 13.0589C58.8228 13.07 60.7791 13.0652 62.7355 13.0652V13.0716L62.7387 13.0684Z" fill="#12288A"/>
<path d="M90.306 15.4555C88.3497 15.4555 86.3933 15.4507 84.437 15.4619C84.187 15.4619 84.1027 15.4028 84.1234 15.1474C84.1472 14.868 84.1409 14.5838 84.1234 14.3028C84.1106 14.1016 84.1807 14.0521 84.3749 14.0537C85.8998 14.0617 87.4248 14.0505 88.9498 14.0649C89.2347 14.0681 89.3605 14.0074 89.3064 13.7088C89.2936 13.6402 89.2968 13.5667 89.3064 13.4981C89.3318 13.3128 89.2618 13.2554 89.074 13.2602C88.5025 13.2713 87.9294 13.2362 87.3596 13.2697C86.3344 13.3304 85.443 12.5624 85.4112 11.3809C85.3809 10.2856 85.408 9.18713 85.3984 8.09024C85.3968 7.86192 85.529 7.88747 85.6706 7.88907C87.0746 7.88907 88.4802 7.88907 89.8842 7.88907C91.6193 7.88907 93.356 7.89226 95.0911 7.88428C95.3076 7.88428 95.3999 7.92419 95.3824 8.16369C95.3601 8.45428 95.3665 8.74806 95.3824 9.03865C95.3935 9.23663 95.3283 9.29411 95.1309 9.29092C94.0468 9.28134 92.9644 9.28613 91.8804 9.28613C90.4955 9.28613 89.1106 9.29251 87.7273 9.27974C87.4789 9.27655 87.436 9.35957 87.4344 9.5847C87.4328 9.81781 87.4901 9.88806 87.7336 9.88646C90.1516 9.87688 92.5696 9.88008 94.9876 9.88167C95.4413 9.88167 95.376 9.83377 95.3808 10.2888C95.384 10.5602 95.376 10.8317 95.384 11.1031C95.3872 11.2324 95.341 11.2851 95.2105 11.2787C95.0306 11.2723 94.8491 11.2771 94.6692 11.2771C92.3611 11.2771 90.0545 11.2771 87.7464 11.2771C87.6588 11.2771 87.5331 11.234 87.4933 11.3107C87.4439 11.4081 87.5156 11.5214 87.5713 11.6188C87.6731 11.796 87.8339 11.8519 88.0281 11.8519C90.3761 11.8519 92.7224 11.8583 95.0704 11.8519C95.3139 11.8519 95.411 11.9014 95.3872 12.1601C95.3633 12.4203 95.3665 12.6838 95.3872 12.944C95.4063 13.1883 95.3362 13.2697 95.0783 13.2665C93.945 13.2522 92.8116 13.2681 91.6782 13.2538C91.4203 13.2506 91.2993 13.3049 91.3487 13.5811C91.3614 13.6497 91.3598 13.7232 91.3487 13.7918C91.3168 14.0042 91.4028 14.0601 91.6129 14.0585C93.1475 14.0489 94.6836 14.0585 96.2181 14.0473C96.4664 14.0457 96.554 14.1064 96.5317 14.3618C96.5094 14.6317 96.5094 14.9063 96.5317 15.1761C96.5508 15.414 96.4585 15.4571 96.242 15.4555C94.5562 15.4476 92.8705 15.4507 91.1863 15.4507C90.895 15.4507 90.6037 15.4507 90.314 15.4507L90.306 15.4555Z" fill="#12288A"/>
<path d="M87.8929 30.4255C88.5153 28.5159 89.117 26.675 89.7171 24.8325C89.8635 24.3822 89.8604 24.3806 90.314 24.3806C90.6849 24.3806 91.0574 24.3966 91.4267 24.3742C91.6782 24.3599 91.7435 24.4349 91.7435 24.6888C91.7339 27.0534 91.7371 29.418 91.7371 31.7826C91.7371 32.2467 91.5053 32.4788 91.0415 32.4788C90.5777 32.4788 90.3517 32.251 90.3634 31.7954C90.3618 30.3872 90.3602 28.979 90.3538 27.5691C90.3538 27.4637 90.3825 27.3488 90.2949 27.2258C89.94 28.2796 89.5913 29.3142 89.2427 30.3505C89.031 30.9779 88.8113 31.6038 88.6124 32.2361C88.5551 32.4197 88.4755 32.4979 88.2781 32.4852C88.0091 32.4676 87.7353 32.4676 87.4662 32.4852C87.2689 32.4979 87.1925 32.4197 87.132 32.2377C86.6003 30.6267 86.0575 29.0189 85.5178 27.4095C85.4908 27.328 85.4637 27.2466 85.3921 27.1732V28.6979C85.3921 29.8747 85.3873 31.053 85.3969 32.2297C85.3969 32.4229 85.3507 32.4963 85.1485 32.4852C84.8477 32.4692 84.5468 32.4692 84.246 32.4852C84.0454 32.4963 83.9929 32.4245 83.9945 32.2297C84.0024 31.2142 83.9992 30.1972 83.9992 29.1817C83.9992 27.6921 84.0072 26.204 83.9913 24.7143C83.9881 24.4253 84.0788 24.3631 84.3431 24.3758C84.7538 24.3966 85.1661 24.3982 85.5767 24.3758C85.8203 24.3615 85.9222 24.4445 85.997 24.676C86.5876 26.501 87.194 28.3195 87.7958 30.1413C87.8212 30.2163 87.8483 30.2914 87.8944 30.4271L87.8929 30.4255Z" fill="#12288A"/>
<path d="M46.2841 9.30849C46.0644 10.1403 45.8639 10.9051 45.6617 11.6699C45.1412 13.6498 44.6175 15.628 44.1049 17.6094C44.0524 17.8106 43.976 17.884 43.7627 17.8761C43.2724 17.8585 42.7805 17.8585 42.2886 17.8761C42.0498 17.884 42.0037 17.8282 42.0658 17.595C42.6929 15.24 43.3106 12.8802 43.9314 10.5235C44.1415 9.72841 44.3612 8.93488 44.557 8.13656C44.6063 7.93858 44.6891 7.8827 44.8833 7.88749C45.4452 7.89866 46.0055 7.89068 46.5675 7.89228C47.3968 7.89228 48.0892 8.4032 48.3025 9.20631C49.0443 12.0084 49.775 14.8153 50.5152 17.619C50.5693 17.8234 50.5247 17.8824 50.3146 17.8777C49.8243 17.8649 49.3309 17.8601 48.8406 17.8793C48.5986 17.8888 48.5222 17.7946 48.4649 17.5743C47.7772 14.9335 47.08 12.2958 46.3844 9.65656C46.3605 9.56396 46.3303 9.47295 46.2825 9.31169L46.2841 9.30849Z" fill="#12288A"/>
<path d="M115.51 9.36588C114.878 11.7688 114.252 14.1462 113.626 16.5236C113.529 16.8924 113.415 17.2581 113.34 17.6301C113.298 17.8408 113.198 17.8776 113.01 17.8744C112.518 17.8648 112.027 17.8616 111.536 17.8744C111.305 17.8808 111.247 17.836 111.313 17.5902C111.98 15.0882 112.633 12.5831 113.29 10.0796C113.459 9.43932 113.642 8.80226 113.79 8.15722C113.843 7.92731 113.948 7.87941 114.158 7.88579C114.69 7.89857 115.221 7.89058 115.753 7.89058C116.67 7.89058 117.334 8.4031 117.569 9.29722C118.224 11.7912 118.876 14.2867 119.529 16.7807C119.608 17.0824 119.682 17.3842 119.769 17.6828C119.811 17.8265 119.785 17.876 119.624 17.8728C119.074 17.8648 118.521 17.86 117.97 17.8744C117.76 17.8808 117.754 17.7418 117.721 17.6109C117.337 16.1548 116.956 14.6986 116.574 13.2441C116.256 12.0307 115.935 10.8188 115.616 9.60537C115.595 9.52873 115.591 9.44571 115.51 9.36428V9.36588Z" fill="#12288A"/>
<path d="M76.4525 19.6722C74.5359 19.6722 72.621 19.6674 70.7044 19.677C70.4672 19.677 70.3876 19.6163 70.4067 19.3768C70.4274 19.107 70.429 18.8323 70.4067 18.5625C70.3845 18.3102 70.4895 18.2623 70.714 18.2687C71.2456 18.2831 71.7773 18.2623 72.309 18.2783C72.5239 18.2847 72.5764 18.216 72.5748 18.0069C72.5669 16.4581 72.5748 14.9078 72.5637 13.3591C72.5621 13.1212 72.6289 13.0493 72.8613 13.0573C73.3421 13.0717 73.8244 13.0749 74.3051 13.0557C74.5391 13.0461 74.6139 13.1004 74.6124 13.3495C74.6012 14.8791 74.6139 16.4086 74.5996 17.9366C74.5964 18.2192 74.6792 18.3007 74.9498 18.2799C75.2491 18.256 75.5515 18.2607 75.8524 18.2799C76.0737 18.2927 76.1166 18.2065 76.1166 18.0037C76.1087 16.4741 76.1182 14.9445 76.1071 13.4165C76.1055 13.1515 76.158 13.0461 76.4477 13.0605C76.9285 13.0844 77.4108 13.0733 77.8915 13.0541C78.0985 13.0461 78.1383 13.1116 78.1383 13.308C78.1303 14.8567 78.1383 16.407 78.1287 17.9558C78.1271 18.2001 78.1844 18.2831 78.4423 18.2799C79.6855 18.2655 80.9303 18.2799 82.1735 18.2687C82.398 18.2671 82.4744 18.3246 82.4585 18.5529C82.4378 18.8339 82.4378 19.1165 82.4585 19.3976C82.476 19.6307 82.3916 19.6786 82.172 19.677C80.2665 19.669 78.3595 19.6722 76.4541 19.6722H76.4525Z" fill="#12288A"/>
<path d="M120.918 14.2659C120.918 12.243 120.923 10.2216 120.912 8.19868C120.912 7.94481 120.984 7.87456 121.23 7.88414C121.711 7.9033 122.194 7.9017 122.674 7.88414C122.894 7.87616 122.966 7.93044 122.961 8.16355C122.946 9.10876 122.961 10.0556 122.95 11.0008C122.946 11.2243 123.001 11.2946 123.23 11.285C123.731 11.2658 124.233 11.2898 124.734 11.2738C124.952 11.2674 125.008 11.3409 124.997 11.5484C124.981 11.8486 124.982 12.152 124.997 12.4537C125.005 12.6309 124.938 12.6741 124.771 12.6725C124.269 12.6629 123.766 12.6836 123.266 12.6629C123.021 12.6533 122.948 12.7124 122.95 12.971C122.961 15.4155 122.95 17.8615 122.964 20.306C122.964 20.5918 122.88 20.6557 122.615 20.6445C122.155 20.6237 121.692 20.6253 121.232 20.6445C120.987 20.6557 120.912 20.5902 120.914 20.3331C120.925 18.3102 120.92 16.2888 120.92 14.2659H120.918Z" fill="#12288A"/>
<path d="M75.8219 7.90017C77.1447 7.90017 78.4691 7.90017 79.7919 7.90017C80.8919 7.90017 81.6862 8.69051 81.6862 9.79538C81.6862 12.0275 81.6814 14.2596 81.6894 16.4917C81.6894 16.7456 81.6432 16.8493 81.3631 16.8334C80.9237 16.8078 80.4796 16.8078 80.0403 16.8334C79.7474 16.8493 79.6534 16.7807 79.655 16.4629C79.6725 14.3921 79.6646 12.3197 79.663 10.2488C79.663 9.58463 79.3781 9.29883 78.7127 9.29883C76.3663 9.29883 74.02 9.29404 71.6752 9.30522C71.4285 9.30522 71.3377 9.24933 71.3616 8.99228C71.3855 8.72244 71.3823 8.44782 71.3616 8.17799C71.3441 7.95127 71.4157 7.89219 71.6418 7.89538C73.0346 7.90656 74.4291 7.90177 75.8219 7.90177V7.90017Z" fill="#12288A"/>
<path d="M54.2942 14.258C54.2942 16.281 54.2895 18.3023 54.3006 20.3253C54.3006 20.5711 54.2481 20.6574 53.9886 20.6446C53.5174 20.6222 53.0447 20.6206 52.5751 20.6446C52.3108 20.6574 52.2678 20.5632 52.2694 20.3221C52.279 17.8872 52.2694 15.4523 52.2822 13.0174C52.2838 12.7157 52.1978 12.6486 51.916 12.6614C51.4258 12.6853 50.9323 12.6614 50.442 12.671C50.2892 12.6742 50.2287 12.6327 50.2351 12.4698C50.2462 12.1377 50.2478 11.8056 50.2351 11.4735C50.2287 11.3042 50.2987 11.2739 50.4468 11.2771C50.9689 11.2835 51.491 11.2707 52.0116 11.2851C52.2217 11.2915 52.2838 11.2308 52.2806 11.0169C52.2694 10.0716 52.2853 9.12484 52.2694 8.17963C52.2662 7.93374 52.3442 7.87627 52.5735 7.88425C53.0749 7.90022 53.5763 7.89702 54.0777 7.88425C54.2688 7.87946 54.307 7.94652 54.307 8.12853C54.3006 10.1706 54.3022 12.2127 54.3022 14.2564C54.3006 14.2564 54.2974 14.2564 54.2958 14.2564L54.2942 14.258Z" fill="#12288A"/>
<path d="M56.8491 26.1481C56.2681 25.8527 55.6854 25.6899 55.0774 25.6148C54.7479 25.5749 54.4183 25.551 54.0936 25.6516C53.7705 25.7521 53.5492 25.9549 53.5046 26.303C53.4632 26.6207 53.6352 26.8347 53.8819 27.0055C54.4629 27.4063 55.1347 27.633 55.7427 27.9826C55.8987 28.0721 56.0595 28.1551 56.2155 28.2461C57.0958 28.7586 57.446 29.541 57.3266 30.5325C57.2136 31.4777 56.6612 32.0796 55.773 32.3766C54.7399 32.7231 53.6988 32.6416 52.661 32.391C52.0322 32.2393 52.029 32.2393 52.0322 31.5863C52.0322 31.326 51.9462 30.946 52.0784 30.8358C52.2455 30.6953 52.5384 30.9588 52.7819 31.0354C53.4999 31.2605 54.2257 31.3739 54.9707 31.2079C55.3814 31.1168 55.695 30.8933 55.7666 30.4495C55.8383 29.9992 55.6695 29.64 55.2859 29.3909C54.7542 29.0476 54.1557 28.8321 53.6033 28.5239C53.1831 28.2892 52.7899 28.021 52.4397 27.6793C51.6342 26.8937 51.83 25.2332 52.9809 24.6329C53.8326 24.1874 54.7319 24.1795 55.6472 24.3439C55.9911 24.4062 56.3285 24.5068 56.6692 24.5898C56.7695 24.6153 56.8538 24.6441 56.8507 24.7814C56.8443 25.2205 56.8475 25.6611 56.8475 26.1465L56.8491 26.1481Z" fill="#12288A"/>
<path d="M103.201 7.89054C104.475 7.89054 105.752 7.93046 107.023 7.87777C108.049 7.83626 108.964 8.63298 108.966 9.83684C108.966 10.9433 108.954 12.0498 108.959 13.1563C108.959 13.3606 108.908 13.4405 108.692 13.4341C108.2 13.4197 107.708 13.4181 107.218 13.4341C106.995 13.4421 106.926 13.3798 106.93 13.1499C106.942 12.1647 106.936 11.178 106.934 10.1913C106.934 9.57979 106.641 9.2876 106.032 9.2876C103.735 9.2876 101.438 9.28441 99.1407 9.29239C98.9131 9.29239 98.816 9.24769 98.8367 8.99861C98.859 8.7192 98.8542 8.435 98.8367 8.15399C98.824 7.94004 98.9004 7.88416 99.1089 7.88575C100.473 7.89374 101.837 7.89054 103.201 7.89054Z" fill="#12288A"/>
<path d="M103.894 15.4555C102.028 15.4555 100.163 15.4507 98.297 15.4603C98.0518 15.4603 97.9579 15.4044 97.9786 15.1473C98.0009 14.8679 97.9961 14.5837 97.9786 14.3027C97.9675 14.0999 98.0391 14.0504 98.2333 14.052C99.4176 14.06 100.6 14.0456 101.785 14.0632C102.062 14.068 102.117 13.9818 102.109 13.7247C102.089 13.1116 102.103 12.4969 102.09 11.8838C102.086 11.6778 102.122 11.574 102.366 11.5836C102.867 11.6028 103.369 11.5996 103.87 11.5836C104.074 11.5772 104.121 11.6491 104.118 11.8423C104.107 12.4761 104.126 13.11 104.109 13.7439C104.102 13.9898 104.16 14.0632 104.416 14.0616C106.111 14.0488 107.807 14.0616 109.502 14.0488C109.771 14.0472 109.855 14.1143 109.83 14.3809C109.806 14.63 109.803 14.8855 109.83 15.1345C109.86 15.4171 109.742 15.4603 109.492 15.4587C107.627 15.4491 105.761 15.4539 103.895 15.4539L103.894 15.4555Z" fill="#12288A"/>
<path d="M74.9084 31.7587C74.45 32.367 73.8897 32.581 73.2386 32.5826C72.0813 32.5874 71.2775 31.7635 71.2759 30.5692C71.2759 29.3622 71.2854 28.1567 71.2759 26.9496C71.2759 26.7453 71.3236 26.691 71.5258 26.7054C71.8044 26.7261 72.0877 26.7245 72.3663 26.7022C72.5939 26.683 72.6592 26.7565 72.6576 26.9848C72.6464 28.0002 72.6512 29.0157 72.6544 30.0312C72.6544 30.2323 72.6655 30.4335 72.6894 30.6331C72.7467 31.1217 73.0842 31.3771 73.5713 31.3101C74.0918 31.2366 74.4022 30.9045 74.6124 30.4511C74.8241 29.9944 74.8814 29.5075 74.8877 29.0125C74.8957 28.3291 74.8973 27.6458 74.8877 26.9608C74.8846 26.7724 74.9243 26.6878 75.1329 26.699C75.4433 26.7165 75.7537 26.7133 76.0641 26.7086C76.2169 26.7054 76.279 26.7549 76.2774 26.9145C76.2742 28.7044 76.2742 30.4942 76.2774 32.284C76.2774 32.4293 76.2265 32.4772 76.0848 32.4724C75.7839 32.4644 75.4815 32.4549 75.1822 32.4756C74.9546 32.4916 74.8702 32.4197 74.9021 32.193C74.918 32.0844 74.9052 31.9727 74.9052 31.7571L74.9084 31.7587Z" fill="#12288A"/>
<path d="M101.465 24.7559C101.465 25.3738 101.471 25.9374 101.462 26.4994C101.458 26.6782 101.498 26.7485 101.692 26.7405C102.063 26.7245 102.434 26.7437 102.805 26.7325C102.977 26.7277 103.033 26.7852 103.025 26.956C103.012 27.2163 103.012 27.4797 103.025 27.74C103.034 27.922 102.955 27.9587 102.794 27.9555C102.423 27.9475 102.052 27.9603 101.681 27.9491C101.508 27.9443 101.46 28.0034 101.462 28.1727C101.47 29.0173 101.46 29.8619 101.468 30.7065C101.473 31.2127 101.716 31.4138 102.216 31.358C102.417 31.3356 102.614 31.3069 102.802 31.235C102.939 31.1823 102.982 31.2222 102.98 31.3627C102.975 31.6948 102.975 32.027 102.98 32.3575C102.983 32.4804 102.947 32.5411 102.819 32.5538C102.231 32.6177 101.64 32.6784 101.064 32.498C100.382 32.2856 100.029 31.7571 100.023 30.946C100.015 30.0407 100.013 29.1354 100.026 28.2317C100.029 28.005 99.9685 27.9427 99.7425 27.9475C99.0946 27.9571 99.093 27.9475 99.093 27.3009C99.093 26.7373 99.093 26.7133 99.6454 26.7453C99.9749 26.7644 100.075 26.6447 100.018 26.3477C99.9144 25.8112 100.107 25.4616 100.621 25.254C100.903 25.1391 101.153 24.9443 101.465 24.7575V24.7559Z" fill="#12288A"/>
<path d="M105.86 27.483C106.446 26.7661 107.176 26.6017 107.979 26.6128C108.131 26.6144 108.162 26.6767 108.159 26.8108C108.152 27.1525 108.151 27.4942 108.159 27.8359C108.163 27.9939 108.108 28.045 107.952 28.0434C107.753 28.0418 107.55 28.0498 107.355 28.0865C106.342 28.2781 105.927 28.7954 105.873 29.9929C105.841 30.7258 105.854 31.4602 105.863 32.1931C105.866 32.4182 105.825 32.5204 105.572 32.5012C105.263 32.4773 104.951 32.4901 104.641 32.498C104.48 32.5028 104.435 32.4358 104.437 32.2841C104.442 30.4959 104.442 28.706 104.437 26.9178C104.437 26.7645 104.496 26.7326 104.633 26.7342C104.973 26.7406 105.314 26.7438 105.655 26.7342C105.807 26.7294 105.874 26.7709 105.861 26.9353C105.849 27.0934 105.858 27.2531 105.858 27.4846L105.86 27.483Z" fill="#12288A"/>
<path d="M77.7227 28.4584C77.7227 27.1923 77.7291 25.9262 77.7179 24.66C77.7163 24.4333 77.7768 24.3598 78.0029 24.3758C78.2719 24.395 78.5457 24.3982 78.8131 24.3758C79.0694 24.3551 79.1506 24.4221 79.1474 24.6983C79.1331 26.7692 79.1394 28.8384 79.1394 30.9093C79.1394 31.3419 79.1299 31.7746 79.1442 32.2057C79.1506 32.4197 79.106 32.5171 78.8672 32.4995C78.5584 32.4788 78.2448 32.4819 77.936 32.4995C77.737 32.5107 77.7068 32.4309 77.7068 32.2568C77.7132 30.9907 77.71 29.7246 77.71 28.4584C77.7132 28.4584 77.7179 28.4584 77.7211 28.4584H77.7227Z" fill="#12288A"/>
<path d="M94.2665 17.1128C93.972 16.8174 93.6298 16.5939 93.2589 16.4119C92.4041 15.9936 91.4888 15.8339 90.5512 15.8163C89.2506 15.7908 87.9867 15.9632 86.8709 16.7073C86.1131 17.2134 85.6117 17.8872 85.634 18.8484C85.6547 19.7185 86.1179 20.3412 86.7976 20.8186C87.7878 21.5147 88.9211 21.7207 90.1007 21.7542C90.6037 21.7622 91.1035 21.7495 91.6002 21.6664C92.5632 21.5052 93.469 21.2034 94.2044 20.5248C95.2598 19.5525 95.2821 18.1251 94.2681 17.1128H94.2665ZM92.2926 19.867C92.1844 19.9373 92.0666 19.9979 91.9488 20.049C91.4251 20.2789 90.8743 20.3604 90.306 20.346C89.7282 20.3604 89.1679 20.2678 88.6378 20.0315C88.407 19.9277 88.1937 19.7936 88.0186 19.6116C87.4646 19.0432 87.5601 18.2624 88.2462 17.7722C88.8877 17.314 89.6343 17.2054 90.392 17.2166C91.0446 17.2262 91.6893 17.3316 92.2656 17.6844C93.2063 18.2608 93.2207 19.2683 92.2942 19.867H92.2926Z" fill="#12288A"/>
<path d="M66.8426 8.21618C66.4987 7.82341 66.0817 7.53282 65.6105 7.32207C64.2972 6.7345 62.9187 6.65787 61.5179 6.85106C60.6965 6.96282 59.9197 7.21829 59.2288 7.69887C58.296 8.34871 57.871 9.32106 58.1337 10.2966C58.3549 11.1189 58.936 11.6458 59.6586 12.0322C60.7443 12.6133 61.9238 12.7251 63.1225 12.7123C63.4488 12.6772 63.7687 12.658 64.0839 12.6037C65.1186 12.4233 66.0849 12.0864 66.8187 11.2817C67.6417 10.3796 67.6464 9.13266 66.8442 8.21618H66.8426ZM64.9483 10.6543C64.4532 11.0726 63.6828 11.3009 62.7961 11.3057C62.0607 11.2945 61.389 11.2083 60.792 10.8315C59.8544 10.2391 59.8465 9.25081 60.7793 8.64887C61.2441 8.34871 61.7694 8.22896 62.3154 8.19064C62.9999 8.14274 63.6748 8.17787 64.3195 8.4445C64.5519 8.5403 64.7684 8.66324 64.9594 8.82929C65.5611 9.35299 65.558 10.1401 64.9483 10.6543Z" fill="#12288A"/>
<path d="M107.698 16.9659C107.407 16.7152 107.087 16.5092 106.735 16.3591C105.315 15.7524 103.843 15.6822 102.343 15.9616C101.484 16.1212 100.686 16.4358 100.029 17.0361C99.0357 17.9446 98.9418 19.289 99.7998 20.298C100.096 20.6461 100.462 20.9111 100.869 21.1155C101.89 21.6264 102.979 21.7877 104.107 21.7542C104.317 21.7446 104.529 21.7446 104.738 21.7222C105.82 21.6057 106.847 21.3311 107.698 20.6046C108.895 19.5827 108.894 17.9925 107.698 16.9659ZM106.134 19.6722C105.643 20.116 105.032 20.2645 104.397 20.3316C104.228 20.3491 104.056 20.3348 103.888 20.3348C103.423 20.3619 102.971 20.2964 102.528 20.1527C102.318 20.0841 102.119 19.9931 101.933 19.8717C101.005 19.2746 101.008 18.2767 101.947 17.6923C102.573 17.3027 103.278 17.2053 103.994 17.2165C104.453 17.2245 104.913 17.2772 105.349 17.4432C105.65 17.5582 105.933 17.7019 106.165 17.9334C106.71 18.4731 106.707 19.1532 106.135 19.6706L106.134 19.6722Z" fill="#12288A"/>
<path d="M94.674 30.0519C95.5956 30.0663 96.5189 30.0615 97.4406 30.0551C97.6969 30.0535 98.0232 30.1653 98.1919 30.004C98.3511 29.8508 98.2317 29.5251 98.2397 29.276C98.2747 28.1424 97.7287 27.2035 96.8118 26.7964C95.8551 26.3717 94.4416 26.6016 93.7109 27.3025C92.7749 28.1998 92.6237 29.9466 93.3273 31.1935C94.2601 32.8461 96.8611 32.8365 97.9547 32.2026C98.0327 32.1563 98.0678 32.0972 98.0678 32.0078C98.0662 31.6677 98.0678 31.3293 98.0678 30.9572C97.977 30.9908 97.9293 31.0019 97.8895 31.0259C97.3292 31.3388 96.7306 31.4602 96.0955 31.3835C95.3887 31.2989 94.8093 31.0195 94.5052 30.3202C94.4225 30.1286 94.4193 30.0472 94.674 30.0504V30.0519ZM94.4113 28.8497C94.5036 28.2318 94.9573 27.8454 95.6052 27.8183C96.1958 27.7927 96.6256 28.0945 96.7481 28.6261C96.772 28.7267 96.8325 28.8529 96.6351 28.8513C95.8949 28.8481 95.1547 28.8513 94.4129 28.8513L94.4113 28.8497Z" fill="#12288A"/>
<path d="M63.5394 29.1897C63.5028 28.1184 63.1192 27.2498 62.0845 26.7916C61.1262 26.3669 59.7381 26.6064 59.0138 27.3025C58.011 28.2669 57.9107 30.1525 58.7512 31.3915C59.6856 32.7694 62.1099 32.8556 63.2449 32.2058C63.3197 32.1627 63.3707 32.118 63.3691 32.0222C63.3659 31.6757 63.3691 31.3276 63.3691 30.9508C63.2943 30.9796 63.2561 30.9876 63.2242 31.0067C62.6591 31.334 62.0495 31.457 61.4032 31.3835C60.7219 31.3053 60.144 31.0514 59.832 30.3872C59.6872 30.0791 59.7015 30.0583 60.0342 30.0583C61.1167 30.0583 62.1991 30.0519 63.2815 30.0631C63.4964 30.0647 63.5617 30.0024 63.5426 29.7933C63.5251 29.5937 63.5442 29.3909 63.5378 29.1897H63.5394ZM62.0479 28.8065C61.9969 28.9231 61.755 28.8465 61.599 28.8465C60.9702 28.8528 60.3414 28.8497 59.692 28.8497C59.8893 28.0625 60.577 27.6538 61.3061 27.8502C61.548 27.9156 61.7422 28.0497 61.8791 28.2573C61.9906 28.425 62.1227 28.6309 62.0463 28.8065H62.0479Z" fill="#12288A"/>
<path d="M67.3823 26.6065C66.2457 26.6001 65.367 27.0855 64.8879 27.986C64.6523 28.4299 64.5488 28.9105 64.5249 29.4054C64.4501 30.9557 65.1489 32.3145 66.8904 32.5684C68.1607 32.7536 69.345 32.2363 69.8703 31.2256C70.1552 30.6763 70.2316 30.0856 70.2269 29.4741C70.2125 27.7433 69.103 26.6161 67.3823 26.6065ZM68.5761 30.5853C68.3676 31.0739 68.0015 31.3485 67.4682 31.3741C66.9111 31.3996 66.451 31.1984 66.2059 30.6795C65.8621 29.9483 65.8716 29.1979 66.2346 28.473C66.4749 27.994 66.8999 27.7992 67.4268 27.8231C67.9426 27.8471 68.3183 28.0898 68.5427 28.5592C68.7019 28.8913 68.7433 29.2505 68.7528 29.5475C68.7417 29.9451 68.7083 30.2756 68.5761 30.5837V30.5853Z" fill="#12288A"/>
<path d="M114.4 29.3286C114.39 29.2089 114.373 29.0891 114.355 28.9694C114.191 27.9124 113.669 27.1141 112.627 26.7836C111.525 26.4339 110.459 26.5058 109.562 27.3392C108.846 28.0066 108.661 28.888 108.704 29.8204C108.754 30.9109 109.145 31.8497 110.204 32.3064C111.334 32.7949 112.466 32.747 113.464 31.9487C114.204 31.3564 114.39 30.5022 114.401 29.5985C114.401 29.5075 114.408 29.4164 114.401 29.327L114.4 29.3286ZM112.843 30.3122C112.676 30.9732 112.245 31.3532 111.632 31.3739C110.95 31.3979 110.457 31.053 110.26 30.3904C110.076 29.7741 110.094 29.161 110.358 28.567C110.594 28.0385 111.016 27.8038 111.582 27.8214C112.14 27.839 112.525 28.1136 112.748 28.6245C112.891 28.9534 112.916 29.3031 112.921 29.6543C112.915 29.8763 112.897 30.095 112.843 30.3106V30.3122Z" fill="#12288A"/>
<path d="M16.3163 13.9753C15.6525 14.7911 15.2625 15.7411 15.0349 16.5251H37.7248C37.5275 15.0003 37.1486 13.5346 36.6138 12.1455H19.7213C18.3841 12.3738 17.7474 12.2142 16.3147 13.9753H16.3163Z" fill="#12288A"/>
<path d="M21.5693 24.0247C22.2331 23.2088 22.6231 22.2588 22.8507 21.4749H0.15918C0.356567 22.9996 0.735422 24.4654 1.27028 25.8544H18.1628C19.4999 25.6261 20.1366 25.7858 21.5693 24.0247Z" fill="#12288A"/>
<path d="M12.9734 18.1218H7.08364C7.08364 17.5055 8.51629 13.8524 11.2224 11.78C13.9285 9.70597 17.5308 9.34034 18.3856 9.34034H35.2558C31.9592 3.7505 25.8879 0 18.9428 0C8.48127 0 0 8.50689 0 19C0 19.2938 0.00795915 19.5876 0.0206938 19.8782H30.8019C30.8019 20.4945 29.3693 24.1476 26.6631 26.22C23.957 28.294 20.3547 28.6597 19.4999 28.6597H2.6297C5.92638 34.2495 11.9976 38 18.9428 38C29.4043 38 37.8855 29.4931 37.8855 19C37.8855 18.7062 37.8776 18.4124 37.8648 18.1218H12.9734Z" fill="#12288A"/>
</g>
<defs>
<clipPath id="clip0_518_796">
<rect width="125" height="38" fill="white"/>
</clipPath>
</defs>
</svg>
