<svg width="100" height="100" viewBox="0 0 100 100" fill="none" xmlns="http://www.w3.org/2000/svg">
<g clip-path="url(#clip0_518_792)">
<path d="M35.0998 50.9999H62.5998C63.2998 50.9999 63.8998 50.3999 63.8998 49.6999V37.1999C63.8998 36.4999 63.2998 35.8999 62.5998 35.8999H35.0998C34.3998 35.8999 33.7998 36.4999 33.7998 37.1999V49.6999C33.8998 50.3999 34.3998 50.9999 35.0998 50.9999ZM36.3998 38.4999H57.0998L50.4998 45.0999C49.9998 45.5999 49.9998 46.3999 50.4998 46.8999C50.9998 47.3999 51.7998 47.3999 52.2998 46.8999L60.6998 38.4999H61.3998V48.4999H45.5998L49.6998 44.3999C50.1998 43.8999 50.1998 43.0999 49.6998 42.5999C49.1998 42.0999 48.3998 42.0999 47.8998 42.5999L41.9998 48.4999H36.2998V38.4999H36.3998Z" fill="black"/>
<path d="M37.5998 57.2002C35.4998 57.2002 33.7998 58.9002 33.7998 61.0002C33.7998 63.1002 35.4998 64.8002 37.5998 64.8002C39.6998 64.8002 41.3998 63.1002 41.3998 61.0002C41.3998 58.9002 39.6998 57.2002 37.5998 57.2002ZM37.5998 62.2002C36.8998 62.2002 36.2998 61.6002 36.2998 60.9002C36.2998 60.2002 36.8998 59.6002 37.5998 59.6002C38.2998 59.6002 38.8998 60.2002 38.8998 60.9002C38.8998 61.6002 38.2998 62.2002 37.5998 62.2002Z" fill="black"/>
<path d="M60.0998 57.2002C57.9998 57.2002 56.2998 58.9002 56.2998 61.0002C56.2998 63.1002 57.9998 64.8002 60.0998 64.8002C62.1998 64.8002 63.8998 63.1002 63.8998 61.0002C63.8998 58.9002 62.1998 57.2002 60.0998 57.2002ZM60.0998 62.2002C59.3998 62.2002 58.7998 61.6002 58.7998 60.9002C58.7998 60.2002 59.3998 59.6002 60.0998 59.6002C60.7998 59.6002 61.3998 60.2002 61.3998 60.9002C61.3998 61.6002 60.7998 62.2002 60.0998 62.2002Z" fill="black"/>
<path d="M53.8999 63.5H43.8999C43.1999 63.5 42.5999 64.1 42.5999 64.8C42.5999 65.5 43.1999 66.1 43.8999 66.1H53.8999C54.5999 66.1 55.1999 65.5 55.1999 64.8C55.0999 64 54.5999 63.5 53.8999 63.5Z" fill="black"/>
<path d="M53.8999 59.7002H43.8999C43.1999 59.7002 42.5999 60.3002 42.5999 61.0002C42.5999 61.7002 43.1999 62.3002 43.8999 62.3002H53.8999C54.5999 62.3002 55.1999 61.7002 55.1999 61.0002C55.1999 60.3002 54.5999 59.7002 53.8999 59.7002Z" fill="black"/>
<path d="M53.8999 56H43.8999C43.1999 56 42.5999 56.6 42.5999 57.3C42.5999 58 43.1999 58.6 43.8999 58.6H53.8999C54.5999 58.6 55.1999 58 55.1999 57.3C55.1999 56.6 54.5999 56 53.8999 56Z" fill="black"/>
<path d="M62.2999 71H63.4999C66.4999 71 68.8999 68.6 68.8999 65.6V36.3C68.8999 33.3 66.4999 30.9 63.4999 30.9H63.3999L61.1999 26.6C60.9999 26.2 60.5999 26 60.0999 26H55.8999L53.6999 21.7C53.4999 21.3 53.0999 21 52.5999 21H45.0999C44.5999 21 44.1999 21.3 43.9999 21.7L41.8999 26H37.6999C37.1999 26 36.7999 26.3 36.5999 26.7L34.3999 31H34.2999C31.2999 31 28.8999 33.4 28.8999 36.4V65.7C28.8999 68.7 31.2999 71.1 34.2999 71.1H36.6999L30.4999 77.3C29.9999 77.8 29.9999 78.6 30.4999 79.1C30.9999 79.6 31.7999 79.6 32.2999 79.1L35.1999 76.2H63.7999L66.6999 79.1C67.1999 79.6 67.9999 79.6 68.4999 79.1C68.9999 78.6 68.9999 77.8 68.4999 77.3L62.2999 71ZM45.8999 23.5H51.8999L53.1999 26H44.6999L45.8999 23.5ZM38.3999 28.5H59.3999L60.6999 31H37.0999L38.3999 28.5ZM31.3999 65.6V36.3C31.3999 34.7 32.6999 33.4 34.2999 33.4H63.5999C65.1999 33.4 66.4999 34.7 66.4999 36.3V65.6C66.4999 67.2 65.1999 68.5 63.5999 68.5H34.2999C32.6999 68.5 31.3999 67.2 31.3999 65.6ZM37.6999 73.5L40.1999 71H58.7999L61.2999 73.5H37.6999Z" fill="black"/>
</g>
<defs>
<clipPath id="clip0_518_792">
<rect width="100" height="100" fill="white"/>
</clipPath>
</defs>
</svg>
