<svg width="100" height="100" viewBox="0 0 100 100" fill="none" xmlns="http://www.w3.org/2000/svg">
<g clip-path="url(#clip0_518_795)">
<path d="M69.1034 51.4976L59.3037 60.593C58.5995 59.1945 57.201 58.2919 55.6041 58.0935L32.5035 55.594C32.1068 55.594 31.7001 55.6932 31.5017 55.9908L21.9996 65.4929C21.5037 65.9888 21.5037 66.7922 21.9996 67.2981L31.9977 77.2961C32.4936 77.792 33.297 77.792 33.7929 77.2961L36.59 74.499L58.3912 75.3024C58.6888 75.3024 59.0954 75.2032 59.2938 74.9057L75.8977 58.3018C77.8021 56.3974 77.8021 53.3028 75.8977 51.4976C73.9933 49.5932 70.9979 49.5932 69.0935 51.4976H69.1034ZM74.2016 56.4966L57.9052 72.793L36.104 71.9896C35.8064 71.9896 35.3998 72.0888 35.2014 72.3863L32.9002 74.6875L24.6975 66.4847L32.9002 58.282C56.2984 60.8807 55.4057 60.7815 55.5049 60.7815C56.5067 60.8807 57.3002 61.5849 57.4093 62.5768C57.5085 63.8761 56.5067 64.8779 55.3065 64.8779L42.6106 64.2729C41.9064 64.2729 41.3113 64.7688 41.3113 65.473C41.3113 66.1773 41.8072 66.7724 42.5114 66.7724C56.0107 67.3774 55.2073 67.3774 55.4156 67.3774C57.5184 67.3774 59.4128 65.8797 59.8195 63.8761C71.4244 53.0747 70.9185 53.4814 70.9185 53.4814C71.8211 52.5788 73.3188 52.5788 74.2214 53.4814C75.124 54.1856 75.124 55.5841 74.2214 56.4768L74.2016 56.4966Z" fill="black"/>
<path d="M50.506 39.6051C50.01 39.4067 49.5042 39.2083 49.1074 39C48.9091 38.9008 48.8099 38.8016 48.8099 38.8016L47.8081 40.706C48.8099 41.4103 50.1092 41.807 51.3094 41.9062V43.5031H52.212V41.9062C52.6087 41.9062 53.0154 41.807 53.4122 41.7078C53.8089 41.6086 54.1164 41.4102 54.4139 41.2119C54.7115 41.0135 54.9099 40.7159 55.1182 40.3093C55.3165 39.9125 55.4157 39.5059 55.4157 39.0099C55.4157 38.6132 55.3165 38.2065 55.2173 37.909C55.019 37.413 54.5131 36.9072 53.7196 36.5104C52.817 36.2129 52.2219 36.0145 52.0235 36.0145V34.0109C52.3211 34.0109 52.5195 34.1101 52.7278 34.2093C53.1245 34.3085 53.5312 34.5069 53.9279 34.7052C54.0271 34.8044 54.1263 34.8044 54.1263 34.9036L55.1281 33.0984C54.7313 32.9 54.3247 32.7017 53.8287 32.5033C53.3328 32.3049 52.7278 32.2057 52.2318 32.1065V30.708H51.3292V32.1065C50.0299 32.2057 49.0281 32.8108 48.5322 33.9018C48.3338 34.2986 48.3338 34.7052 48.3338 35.102C48.3338 36.1038 48.7305 36.7981 49.7323 37.3039C50.4366 37.7007 51.23 37.7999 51.5375 37.899V39.6943C51.24 39.6943 50.8333 39.6943 50.5357 39.5951L50.506 39.6051ZM52.1029 38.2065C52.4004 38.3057 52.698 38.4049 52.9063 38.6033C53.1047 38.7025 53.2039 38.9008 53.2039 39.0992C53.2039 39.4959 52.9063 39.8034 52.2021 39.8034L52.1029 38.2065ZM50.8035 35.3103C50.6052 35.2111 50.6052 35.0127 50.6052 34.8143C50.6052 34.3184 50.9027 34.1101 51.5078 34.0109V35.707C51.2102 35.6078 50.9126 35.5086 50.8035 35.3103Z" fill="black"/>
<path d="M51.7061 47.5997C57.5086 47.5997 62.3092 42.799 62.3092 36.9966C62.3092 31.1942 57.5086 26.3936 51.7061 26.3936C51.0019 26.3936 50.4068 26.9887 50.4068 27.6929C50.4068 28.3971 51.0019 28.9922 51.7061 28.9922C56.2092 28.9922 59.8097 32.5927 59.8097 37.0958C59.8097 41.5989 56.2092 45.1993 51.7061 45.1993C47.2031 45.1993 43.6026 41.5989 43.6026 37.0958C43.6026 36.3916 43.0075 35.7965 42.3033 35.7965C41.599 35.7965 41.0039 36.3916 41.0039 37.0958C41.1031 42.8982 45.8045 47.5997 51.7061 47.5997Z" fill="black"/>
<path d="M51.7061 52.5987C60.3055 52.5987 67.3081 45.5961 67.3081 36.9966C67.3081 28.3971 60.3055 21.3945 51.7061 21.3945C43.1066 21.3945 36.104 28.3971 36.104 36.9966C36.104 45.5961 43.1066 52.5987 51.7061 52.5987ZM51.7061 23.894C58.907 23.894 64.8086 29.7956 64.8086 36.9966C64.8086 44.1975 58.907 50.0992 51.7061 50.0992C44.5051 50.0992 38.6035 44.2967 38.6035 36.9966C38.6035 29.6965 44.5051 23.894 51.7061 23.894Z" fill="black"/>
<path d="M28.6055 50.0992C30.7082 50.0992 32.4043 48.4031 32.4043 46.3003C32.4043 44.1976 30.7082 42.5015 28.6055 42.5015C26.5027 42.5015 24.8066 44.1976 24.8066 46.3003C24.8066 48.4031 26.5027 50.0992 28.6055 50.0992ZM28.6055 45.1002C29.3097 45.1002 29.9048 45.6953 29.9048 46.3995C29.9048 47.1037 29.3097 47.6988 28.6055 47.6988C27.9013 47.6988 27.3061 47.1037 27.3061 46.3995C27.3061 45.6953 27.9013 45.1002 28.6055 45.1002Z" fill="black"/>
<path d="M71.702 30.1032C74.1023 30.1032 76.1059 28.0996 76.1059 25.6993C76.1059 23.299 74.1023 21.2954 71.702 21.2954C69.3017 21.2954 67.2981 23.299 67.2981 25.6993C67.2981 28.0996 69.3017 30.1032 71.702 30.1032ZM71.702 23.904C72.7038 23.904 73.6064 24.7074 73.6064 25.8084C73.6064 26.8102 72.803 27.7128 71.702 27.7128C70.601 27.7128 69.7976 26.9094 69.7976 25.8084C69.7976 24.7074 70.7002 23.904 71.702 23.904Z" fill="black"/>
</g>
<defs>
<clipPath id="clip0_518_795">
<rect width="100" height="100" fill="white"/>
</clipPath>
</defs>
</svg>
