<svg width="100" height="100" viewBox="0 0 100 100" fill="none" xmlns="http://www.w3.org/2000/svg">
<g clip-path="url(#clip0_518_793)">
<path d="M76.6019 70.7H22.3964C21.8013 70.7 21.2954 70.204 21.2954 69.599V34.6952C21.2954 34.1001 21.7913 33.5942 22.3964 33.5942H76.5027C77.0978 33.5942 77.6037 34.0902 77.6037 34.6952V69.599C77.7029 70.204 77.2069 70.7 76.6019 70.7ZM23.5965 68.498H75.5009V35.7962H23.5965V68.498Z" fill="black"/>
<path d="M38.296 47.5002H32.9994C32.3944 47.5002 31.8984 47.0043 31.8984 46.3992V34.6952C31.8984 34.1001 32.3944 33.5942 32.9994 33.5942H38.296C38.901 33.5942 39.397 34.0902 39.397 34.6952V46.3001C39.397 47.0043 38.901 47.5002 38.296 47.5002ZM34.1004 45.1991H37.0958V35.7962H34.1004V45.1991Z" fill="black"/>
<path d="M38.296 70.7001H32.9994C32.3944 70.7001 31.8984 70.2042 31.8984 69.5991V56.9032C31.8984 56.3081 32.3944 55.8022 32.9994 55.8022H38.296C38.901 55.8022 39.397 56.2982 39.397 56.9032V69.5991C39.397 70.2042 38.901 70.7001 38.296 70.7001ZM34.1004 68.4981H37.0958V57.9943H34.1004V68.4981Z" fill="black"/>
<path d="M65.8004 47.5002H60.5038C59.9087 47.5002 59.4028 47.0043 59.4028 46.3992V34.6952C59.4028 34.1001 59.8988 33.5942 60.5038 33.5942H65.8004C66.4054 33.5942 66.9013 34.0902 66.9013 34.6952V46.3001C66.9013 47.0043 66.4054 47.5002 65.8004 47.5002ZM61.6048 45.1991H64.6002V35.7962H61.6048V45.1991Z" fill="black"/>
<path d="M65.8004 70.7001H60.5038C59.9087 70.7001 59.4028 70.2042 59.4028 69.5991V56.9032C59.4028 56.3081 59.8988 55.8022 60.5038 55.8022H65.8004C66.4054 55.8022 66.9013 56.2982 66.9013 56.9032V69.5991C66.9013 70.2042 66.4054 70.7001 65.8004 70.7001ZM61.6048 68.4981H64.6002V57.9943H61.6048V68.4981Z" fill="black"/>
<path d="M59.4029 52.7972H39.1985L31.7992 52.698H31.7C28.903 52.3013 26.3043 51.2003 24.4991 49.5935C22.4955 47.7982 21.3945 45.5962 21.3945 43.2951V34.7948C21.3945 34.1997 21.8905 33.6938 22.4955 33.6938H76.5919C77.187 33.6938 77.6929 34.1898 77.6929 34.7948V43.2951C77.6929 45.4971 76.6911 47.699 74.8958 49.3951C73.1997 50.992 70.7994 52.1922 68.0916 52.5988C67.6949 52.698 67.2882 52.698 66.9906 52.7972H59.3929H59.4029ZM39.1985 50.4961H59.4029L66.8022 50.3969C67.0997 50.3969 67.4072 50.2977 67.804 50.2977C72.3071 49.4943 75.5009 46.4988 75.5009 43.1959V35.8958H23.5965V43.1959C23.5965 46.6972 27.197 49.7918 31.8984 50.3969L39.1985 50.4961Z" fill="black"/>
<path d="M39.2979 58.0042H31.8986C31.2935 58.0042 30.7976 57.5083 30.7976 56.9032V46.3002C30.7976 45.7051 31.2935 45.1992 31.8986 45.1992H39.2979C39.893 45.1992 40.3989 45.6952 40.3989 46.3002V56.9032C40.4981 57.5083 40.0021 58.0042 39.2979 58.0042ZM33.0987 55.8023H38.1969V47.5003H33.0987V55.8023Z" fill="black"/>
<path d="M66.8023 58.0042H59.403C58.8079 58.0042 58.302 57.5083 58.302 56.9032V46.3002C58.302 45.7051 58.7979 45.1992 59.403 45.1992H66.8023C67.4073 45.1992 67.9033 45.6952 67.9033 46.3002V56.9032C68.0025 57.5083 67.5065 58.0042 66.8023 58.0042ZM60.6031 55.8023H65.7013V47.5003H60.6031V55.8023Z" fill="black"/>
<path d="M59.4029 35.7964H39.2977C38.6927 35.7964 38.1968 35.3004 38.1968 34.6954V29.3988C38.1968 28.7938 38.6927 28.2979 39.2977 28.2979H59.4029C60.0079 28.2979 60.5039 28.7938 60.5039 29.3988V34.6954C60.603 35.3004 60.1071 35.7964 59.4029 35.7964ZM40.4979 33.5944H58.3019V30.599H40.4979V33.5944Z" fill="black"/>
<path d="M45.7053 60.0972H43.6025V62.1999H45.7053V60.0972Z" fill="black"/>
<path d="M48.8991 60.0972H46.7964V62.1999H48.8991V60.0972Z" fill="black"/>
<path d="M52.0036 60.0972H49.9009V62.1999H52.0036V60.0972Z" fill="black"/>
<path d="M55.2072 60.0972H53.1045V62.1999H55.2072V60.0972Z" fill="black"/>
</g>
<defs>
<clipPath id="clip0_518_793">
<rect width="100" height="100" fill="white"/>
</clipPath>
</defs>
</svg>
