<svg width="100" height="100" viewBox="0 0 100 100" fill="none" xmlns="http://www.w3.org/2000/svg">
<g clip-path="url(#clip0_518_794)">
<path d="M79.1014 28.9029C79.1014 28.5062 78.903 28.1987 78.6055 27.9011C68.0024 20.0059 68.6075 20.3034 68.1016 20.2042C67.804 20.1051 70.006 20.2042 35.3006 20.2042C34.5963 20.2042 34.0012 20.7994 34.0012 21.5036V31.5016C34.0012 32.2058 34.5963 32.8009 35.3006 32.8009C36.0048 32.8009 36.5999 32.2058 36.5999 31.5016V22.7037H66.6039V29.0021C66.6039 29.7063 67.2089 30.3014 67.9032 30.3014H76.7011V77.8019H36.6991V69.0041C36.6991 68.2999 36.104 67.7047 35.3998 67.7047C34.6955 67.7047 34.1004 68.2999 34.1004 69.0041V79.0021C34.1004 79.7063 34.6955 80.3014 35.3998 80.3014H77.9012C78.6055 80.3014 79.2006 79.7063 79.2006 79.0021V28.9029H79.1014ZM69.1034 23.9039L74.1024 27.7028H69.1034V23.9039Z" fill="black"/>
<path d="M69.1033 71.4043H54.1062C53.402 71.4043 52.8069 71.9994 52.8069 72.7036C52.8069 73.4079 53.402 74.003 54.1062 74.003H69.1033C69.8075 74.003 70.4026 73.398 70.4026 72.7036C70.4026 71.9002 69.7976 71.4043 69.1033 71.4043Z" fill="black"/>
<path d="M69.1032 65.0962H44.1082C43.404 65.0962 42.8088 65.7012 42.8088 66.3955C42.8088 67.0898 43.404 67.6949 44.1082 67.6949H69.1032C69.8074 67.6949 70.4026 67.0898 70.4026 66.3955C70.4026 65.7012 69.7975 65.0962 69.1032 65.0962Z" fill="black"/>
<path d="M69.1032 58.897H55.4055C54.7112 58.897 54.1062 59.502 54.1062 60.1963C54.1062 60.8906 54.7112 61.4957 55.4055 61.4957H69.2024C69.9066 61.4957 70.5018 60.8906 70.5018 60.1963C70.4026 59.3929 69.7975 58.897 69.1032 58.897Z" fill="black"/>
<path d="M69.1032 52.5986H55.4055C54.7112 52.5986 54.1062 53.1938 54.1062 53.898C54.1062 54.6022 54.7112 55.1973 55.4055 55.1973H69.2024C69.9066 55.1973 70.5018 54.6022 70.5018 53.898C70.4026 53.1938 69.7975 52.5986 69.1032 52.5986Z" fill="black"/>
<path d="M69.1032 46.3994H55.4055C54.7112 46.3994 54.1062 47.0045 54.1062 47.6988C54.1062 48.3931 54.7112 48.9981 55.4055 48.9981H69.2024C69.9066 48.9981 70.5018 48.3931 70.5018 47.6988C70.4026 46.8953 69.7975 46.3994 69.1032 46.3994Z" fill="black"/>
<path d="M69.1032 40.1011H55.4055C54.7112 40.1011 54.1062 40.6962 54.1062 41.4004C54.1062 42.1046 54.7112 42.6998 55.4055 42.6998H69.2024C69.9066 42.6998 70.5018 42.1046 70.5018 41.4004C70.4026 40.6962 69.7975 40.1011 69.1032 40.1011Z" fill="black"/>
<path d="M69.1032 33.9019H44.1082C43.404 33.9019 42.8088 34.5069 42.8088 35.2012C42.8088 35.8955 43.404 36.5005 44.1082 36.5005H69.1032C69.8074 36.5005 70.4026 35.8955 70.4026 35.2012C70.4026 34.3978 69.7975 33.9019 69.1032 33.9019Z" fill="black"/>
<path d="M49.0973 50.0991C49.0973 41.7972 42.4022 35.1021 34.1003 35.1021C25.7984 35.1021 19.1033 41.7972 19.1033 50.0991C19.1033 54.6021 21.206 58.9961 24.7073 61.8031L24.1122 66.1078C24.013 67.1096 25.0148 67.8039 25.9075 67.4071L31.204 64.7093C40.5078 66.7128 49.1072 59.5119 49.1072 50.109L49.0973 50.0991ZM30.4998 62.3982L26.9985 64.1935L27.3953 61.4956C27.4945 60.9997 27.2961 60.593 26.8993 60.2955C23.5964 57.9943 21.702 54.1955 21.702 50.0991C21.702 43.1957 27.306 37.6016 34.1995 37.6016C41.093 37.6016 46.697 43.2056 46.697 50.0991C46.697 56.9925 40.9938 62.5966 34.1003 62.5966C31.7 62.5966 31.3032 62.0015 30.4998 62.3982Z" fill="black"/>
<path d="M34.1004 38.9009C32.196 38.9009 30.5991 40.4978 30.5991 42.4022V50.1982C30.5991 52.1026 32.196 53.6995 34.1004 53.6995C36.0048 53.6995 37.6017 52.1026 37.6017 50.1982V42.4022C37.6017 40.3986 36.0048 38.9009 34.1004 38.9009ZM35.1022 50.0991C35.1022 50.595 34.7054 51.1008 34.1004 51.1008C33.4954 51.1008 33.0986 50.7041 33.0986 50.0991V42.303C33.0986 41.807 33.4954 41.3012 34.1004 41.3012C34.7054 41.3012 35.1022 41.6979 35.1022 42.303V50.0991Z" fill="black"/>
<path d="M34.1004 54.4038C32.196 54.4038 30.5991 56.0007 30.5991 57.9051C30.5991 59.8095 32.196 61.4064 34.1004 61.4064C36.0048 61.4064 37.6017 59.8095 37.6017 57.9051C37.6017 56.0007 36.0048 54.4038 34.1004 54.4038ZM34.1004 58.9069C33.6045 58.9069 33.0986 58.5101 33.0986 57.9051C33.0986 57.3001 33.4954 56.9033 34.1004 56.9033C34.7054 56.9033 35.1022 57.3001 35.1022 57.9051C35.1022 58.5101 34.7054 58.9069 34.1004 58.9069Z" fill="black"/>
</g>
<defs>
<clipPath id="clip0_518_794">
<rect width="100" height="100" fill="white"/>
</clipPath>
</defs>
</svg>
