<svg width="100" height="100" viewBox="0 0 100 100" fill="none" xmlns="http://www.w3.org/2000/svg">
<g clip-path="url(#clip0_518_791)">
<path d="M77.9011 77.6035H75.4016C74.0031 77.6035 72.9021 76.5025 72.9021 75.104V70.105C72.9021 67.3079 70.7002 65.1059 67.9031 65.1059C65.106 65.1059 62.9041 67.3079 62.9041 70.105V75.104C62.9041 76.5025 61.8031 77.6035 60.4046 77.6035C59.0061 77.6035 57.9051 76.5025 57.9051 75.104V70.105C57.9051 67.3079 55.7032 65.1059 52.9061 65.1059C50.109 65.1059 47.9071 67.3079 47.9071 70.105V75.104C47.9071 76.5025 46.8061 77.6035 45.4076 77.6035C44.009 77.6035 42.9081 76.5025 42.9081 75.104V70.105C42.9081 67.3079 40.7061 65.1059 37.9091 65.1059C35.112 65.1059 32.9101 67.3079 32.9101 70.105V75.104C32.9101 76.5025 31.8091 77.6035 30.4106 77.6035C29.012 77.6035 27.911 76.5025 27.911 75.104V60.1069H32.9101C33.6143 60.1069 34.2094 59.5118 34.2094 58.8076V48.8096C34.2094 48.1054 33.6143 47.5102 32.9101 47.5102H29.1112V32.5132H32.9101C33.6143 32.5132 34.2094 31.9082 34.2094 31.2139V21.2158C34.2094 20.5116 33.6143 19.9165 32.9101 19.9165H27.306C22.8029 19.9165 19.1033 23.6162 19.1033 28.1192V52.0232C19.1033 55.8221 21.8011 59.125 25.4016 59.9284V75.1238C25.4016 77.9209 27.6036 80.1228 30.4006 80.1228C33.1977 80.1228 35.3996 77.9209 35.3996 75.1238V70.1248C35.3996 68.7263 36.5006 67.6253 37.8991 67.6253C39.2977 67.6253 40.3986 68.7263 40.3986 70.1248V75.1238C40.3986 77.9209 42.6006 80.1228 45.3977 80.1228C48.1947 80.1228 50.3967 77.9209 50.3967 75.1238V70.1248C50.3967 68.7263 51.4976 67.6253 52.8962 67.6253C54.2947 67.6253 55.3957 68.7263 55.3957 70.1248V75.1238C55.3957 77.9209 57.5976 80.1228 60.3947 80.1228C63.1917 80.1228 65.3937 77.9209 65.3937 75.1238V70.1248C65.3937 68.7263 66.4947 67.6253 67.8932 67.6253C69.2917 67.6253 70.3927 68.7263 70.3927 70.1248V75.1238C70.3927 77.9209 72.5946 80.1228 75.3917 80.1228H77.8912C78.5954 80.1228 79.1906 79.5277 79.1906 78.8235C79.0914 78.2184 78.5855 77.6233 77.8912 77.6233L77.9011 77.6035ZM21.6028 52.0034V28.3077C21.6028 25.2032 24.1023 22.6045 27.306 22.6045H31.6107V30.103H29.1112V28.8036C29.1112 28.0994 28.5062 27.5043 27.8119 27.5043C27.1176 27.5043 26.5125 28.0994 26.5125 28.8036V51.3091C26.5125 52.0133 27.1176 52.6084 27.8119 52.6084C28.5062 52.6084 29.1112 52.0133 29.1112 51.3091V50.0097H31.6107V57.5083H27.306C24.2114 57.6074 21.6028 55.1079 21.6028 52.0034Z" fill="black"/>
<path d="M44.1976 58.5001C43.9 59.4027 44.6935 60.1962 45.5961 60.097L54.2948 58.5001C65.1954 60.7021 75.2926 52.4001 75.2926 41.4003C75.2926 31.7991 67.3974 23.9038 57.7961 23.9038C48.1948 23.9038 40.2996 31.7991 40.2996 41.4003C40.2996 46.1018 42.194 50.4958 45.3978 53.7987L44.1976 58.5001ZM42.8983 41.4003C42.8983 33.0984 49.5933 26.4033 57.8953 26.4033C66.1972 26.4033 72.8923 33.0984 72.8923 41.4003C72.8923 50.9024 64.0944 58.1034 54.6915 56.0006C54.2948 55.9014 54.6915 55.9014 47.193 57.3L48.1948 53.7987C48.294 53.3027 48.1948 52.7969 47.7981 52.4993C44.6935 49.6031 42.8983 45.5959 42.8983 41.4003Z" fill="black"/>
<path d="M57.5977 36.7979C58.0937 36.5003 58.8971 36.5995 59.4922 36.9963C60.0972 37.4922 60.0972 38.3948 59.6906 38.9998C58.1928 41.0034 55.6933 40.2 55.6933 43.8005H58.3912C58.3912 41.6977 62.8943 42.1044 62.8943 38.0972C62.8943 37.2938 62.7951 36.6987 62.4975 36.1929C62.0016 35.1911 61.099 34.4968 59.998 34.1893C57.6969 33.4851 54.999 34.3877 54.0964 36.6888L56.1992 38.1865C56.6951 37.4823 57.0026 37.0855 57.5977 36.788V36.7979Z" fill="black"/>
<path d="M58.5001 45.8042H55.8022V48.9087H58.5001V45.8042Z" fill="black"/>
</g>
<defs>
<clipPath id="clip0_518_791">
<rect width="100" height="100" fill="white"/>
</clipPath>
</defs>
</svg>
