<svg width="140" height="140" viewBox="0 0 140 140" fill="none" xmlns="http://www.w3.org/2000/svg">
<rect width="140" height="140" rx="70" fill="#F0F2FF"/>
<g clip-path="url(#clip0_518_788)">
<path d="M55.5998 70.9999H83.0998C83.7998 70.9999 84.3998 70.3999 84.3998 69.6999V57.1999C84.3998 56.4999 83.7998 55.8999 83.0998 55.8999H55.5998C54.8998 55.8999 54.2998 56.4999 54.2998 57.1999V69.6999C54.3998 70.3999 54.8998 70.9999 55.5998 70.9999ZM56.8998 58.4999H77.5998L70.9998 65.0999C70.4998 65.5999 70.4998 66.3999 70.9998 66.8999C71.4998 67.3999 72.2998 67.3999 72.7998 66.8999L81.1998 58.4999H81.8998V68.4999H66.0998L70.1998 64.3999C70.6998 63.8999 70.6998 63.0999 70.1998 62.5999C69.6998 62.0999 68.8998 62.0999 68.3998 62.5999L62.4998 68.4999H56.7998V58.4999H56.8998Z" fill="black"/>
<path d="M58.0998 77.2C55.9998 77.2 54.2998 78.9 54.2998 81C54.2998 83.1 55.9998 84.8 58.0998 84.8C60.1998 84.8 61.8998 83.1 61.8998 81C61.8998 78.9 60.1998 77.2 58.0998 77.2ZM58.0998 82.2C57.3998 82.2 56.7998 81.6 56.7998 80.9C56.7998 80.2 57.3998 79.5999 58.0998 79.5999C58.7998 79.5999 59.3998 80.2 59.3998 80.9C59.3998 81.6 58.7998 82.2 58.0998 82.2Z" fill="black"/>
<path d="M80.5998 77.2C78.4998 77.2 76.7998 78.9 76.7998 81C76.7998 83.1 78.4998 84.8 80.5998 84.8C82.6998 84.8 84.3998 83.1 84.3998 81C84.3998 78.9 82.6998 77.2 80.5998 77.2ZM80.5998 82.2C79.8998 82.2 79.2998 81.6 79.2998 80.9C79.2998 80.2 79.8998 79.5999 80.5998 79.5999C81.2998 79.5999 81.8998 80.2 81.8998 80.9C81.8998 81.6 81.2998 82.2 80.5998 82.2Z" fill="black"/>
<path d="M74.3999 83.5H64.3999C63.6999 83.5 63.0999 84.1 63.0999 84.8C63.0999 85.5 63.6999 86.1 64.3999 86.1H74.3999C75.0999 86.1 75.6999 85.5 75.6999 84.8C75.5999 84 75.0999 83.5 74.3999 83.5Z" fill="black"/>
<path d="M74.3999 79.7H64.3999C63.6999 79.7 63.0999 80.3 63.0999 81C63.0999 81.7 63.6999 82.2999 64.3999 82.2999H74.3999C75.0999 82.2999 75.6999 81.7 75.6999 81C75.6999 80.3 75.0999 79.7 74.3999 79.7Z" fill="black"/>
<path d="M74.3999 76H64.3999C63.6999 76 63.0999 76.6 63.0999 77.3C63.0999 78 63.6999 78.6 64.3999 78.6H74.3999C75.0999 78.6 75.6999 78 75.6999 77.3C75.6999 76.6 75.0999 76 74.3999 76Z" fill="black"/>
<path d="M82.7999 91H83.9999C86.9999 91 89.3999 88.6 89.3999 85.6V56.3C89.3999 53.3 86.9999 50.9 83.9999 50.9H83.8999L81.6999 46.6C81.4999 46.2 81.0999 46 80.5999 46H76.3999L74.1999 41.7C73.9999 41.3 73.5999 41 73.0999 41H65.5999C65.0999 41 64.6999 41.3 64.4999 41.7L62.3999 46H58.1999C57.6999 46 57.2999 46.3 57.0999 46.7L54.8999 51H54.7999C51.7999 51 49.3999 53.4 49.3999 56.4V85.7C49.3999 88.7 51.7999 91.1 54.7999 91.1H57.1999L50.9999 97.3C50.4999 97.8 50.4999 98.6 50.9999 99.1C51.4999 99.6 52.2999 99.6 52.7999 99.1L55.6999 96.2H84.2999L87.1999 99.1C87.6999 99.6 88.4999 99.6 88.9999 99.1C89.4999 98.6 89.4999 97.8 88.9999 97.3L82.7999 91ZM66.3999 43.5H72.3999L73.6999 46H65.1999L66.3999 43.5ZM58.8999 48.5H79.8999L81.1999 51H57.5999L58.8999 48.5ZM51.8999 85.6V56.3C51.8999 54.7 53.1999 53.4 54.7999 53.4H84.0999C85.6999 53.4 86.9999 54.7 86.9999 56.3V85.6C86.9999 87.2 85.6999 88.5 84.0999 88.5H54.7999C53.1999 88.5 51.8999 87.2 51.8999 85.6ZM58.1999 93.5L60.6999 91H79.2999L81.7999 93.5H58.1999Z" fill="black"/>
</g>
<defs>
<clipPath id="clip0_518_788">
<rect width="100" height="100" fill="white" transform="translate(20.5 20)"/>
</clipPath>
</defs>
</svg>
