<svg width="140" height="140" viewBox="0 0 140 140" fill="none" xmlns="http://www.w3.org/2000/svg">
<rect width="140" height="140" rx="70" fill="#F0F2FF"/>
<g clip-path="url(#clip0_518_787)">
<path d="M97.1019 90.7002H42.8964C42.3013 90.7002 41.7954 90.2043 41.7954 89.5992V54.6955C41.7954 54.1003 42.2913 53.5945 42.8964 53.5945H97.0027C97.5978 53.5945 98.1037 54.0904 98.1037 54.6955V89.5992C98.2029 90.2043 97.7069 90.7002 97.1019 90.7002ZM44.0965 88.4983H96.0009V55.7964H44.0965V88.4983Z" fill="black"/>
<path d="M58.796 67.5005H53.4994C52.8944 67.5005 52.3984 67.0045 52.3984 66.3995V54.6955C52.3984 54.1003 52.8944 53.5945 53.4994 53.5945H58.796C59.401 53.5945 59.897 54.0904 59.897 54.6955V66.3003C59.897 67.0045 59.401 67.5005 58.796 67.5005ZM54.6004 65.1993H57.5958V55.7964H54.6004V65.1993Z" fill="black"/>
<path d="M58.796 90.7001H53.4994C52.8944 90.7001 52.3984 90.2042 52.3984 89.5991V76.9032C52.3984 76.3081 52.8944 75.8022 53.4994 75.8022H58.796C59.401 75.8022 59.897 76.2982 59.897 76.9032V89.5991C59.897 90.2042 59.401 90.7001 58.796 90.7001ZM54.6004 88.4981H57.5958V77.9943H54.6004V88.4981Z" fill="black"/>
<path d="M86.3004 67.5005H81.0038C80.4087 67.5005 79.9028 67.0045 79.9028 66.3995V54.6955C79.9028 54.1003 80.3988 53.5945 81.0038 53.5945H86.3004C86.9054 53.5945 87.4013 54.0904 87.4013 54.6955V66.3003C87.4013 67.0045 86.9054 67.5005 86.3004 67.5005ZM82.1048 65.1993H85.1002V55.7964H82.1048V65.1993Z" fill="black"/>
<path d="M86.3004 90.7001H81.0038C80.4087 90.7001 79.9028 90.2042 79.9028 89.5991V76.9032C79.9028 76.3081 80.3988 75.8022 81.0038 75.8022H86.3004C86.9054 75.8022 87.4013 76.2982 87.4013 76.9032V89.5991C87.4013 90.2042 86.9054 90.7001 86.3004 90.7001ZM82.1048 88.4981H85.1002V77.9943H82.1048V88.4981Z" fill="black"/>
<path d="M79.9029 72.797H59.6985L52.2992 72.6978H52.2C49.403 72.301 46.8043 71.2 44.9991 69.5932C42.9955 67.7979 41.8945 65.596 41.8945 63.2949V54.7946C41.8945 54.1995 42.3905 53.6936 42.9955 53.6936H97.0919C97.687 53.6936 98.1929 54.1895 98.1929 54.7946V63.2949C98.1929 65.4968 97.1911 67.6988 95.3958 69.3949C93.6997 70.9918 91.2994 72.1919 88.5916 72.5986C88.1949 72.6978 87.7882 72.6978 87.4906 72.797H79.8929H79.9029ZM59.6985 70.4958H79.9029L87.3022 70.3966C87.5997 70.3966 87.9072 70.2975 88.304 70.2975C92.8071 69.494 96.0009 66.4986 96.0009 63.1957V55.8955H44.0965V63.1957C44.0965 66.697 47.697 69.7916 52.3984 70.3966L59.6985 70.4958Z" fill="black"/>
<path d="M59.7979 78.0042H52.3986C51.7935 78.0042 51.2976 77.5083 51.2976 76.9032V66.3002C51.2976 65.7051 51.7935 65.1992 52.3986 65.1992H59.7979C60.393 65.1992 60.8989 65.6952 60.8989 66.3002V76.9032C60.9981 77.5083 60.5021 78.0042 59.7979 78.0042ZM53.5987 75.8023H58.6969V67.5003H53.5987V75.8023Z" fill="black"/>
<path d="M87.3023 78.0042H79.903C79.3079 78.0042 78.802 77.5083 78.802 76.9032V66.3002C78.802 65.7051 79.2979 65.1992 79.903 65.1992H87.3023C87.9073 65.1992 88.4033 65.6952 88.4033 66.3002V76.9032C88.5025 77.5083 88.0065 78.0042 87.3023 78.0042ZM81.1031 75.8023H86.2013V67.5003H81.1031V75.8023Z" fill="black"/>
<path d="M79.9029 55.7964H59.7977C59.1927 55.7964 58.6968 55.3004 58.6968 54.6954V49.3988C58.6968 48.7938 59.1927 48.2979 59.7977 48.2979H79.9029C80.5079 48.2979 81.0039 48.7938 81.0039 49.3988V54.6954C81.103 55.3004 80.6071 55.7964 79.9029 55.7964ZM60.9979 53.5944H78.8019V50.599H60.9979V53.5944Z" fill="black"/>
<path d="M66.2053 80.0972H64.1025V82.1999H66.2053V80.0972Z" fill="black"/>
<path d="M69.3991 80.0972H67.2964V82.1999H69.3991V80.0972Z" fill="black"/>
<path d="M72.5036 80.0972H70.4009V82.1999H72.5036V80.0972Z" fill="black"/>
<path d="M75.7072 80.0972H73.6045V82.1999H75.7072V80.0972Z" fill="black"/>
</g>
<defs>
<clipPath id="clip0_518_787">
<rect width="100" height="100" fill="white" transform="translate(20.5 20)"/>
</clipPath>
</defs>
</svg>
