<svg width="140" height="140" viewBox="0 0 140 140" fill="none" xmlns="http://www.w3.org/2000/svg">
<rect width="140" height="140" rx="70" fill="#F0F2FF"/>
<g clip-path="url(#clip0_518_790)">
<path d="M89.6034 71.4979L79.8037 80.5933C79.0995 79.1948 77.701 78.2922 76.1041 78.0938L53.0035 75.5943C52.6068 75.5943 52.2001 75.6935 52.0017 75.991L42.4996 85.4931C42.0037 85.989 42.0037 86.7925 42.4996 87.2983L52.4977 97.2963C52.9936 97.7923 53.797 97.7923 54.2929 97.2963L57.09 94.4993L78.8912 95.3027C79.1888 95.3027 79.5954 95.2035 79.7938 94.9059L96.3977 78.3021C98.3021 76.3977 98.3021 73.3031 96.3977 71.4979C94.4933 69.5935 91.4979 69.5935 89.5935 71.4979H89.6034ZM94.7016 76.4969L78.4052 92.7932L56.604 91.9898C56.3064 91.9898 55.8998 92.089 55.7014 92.3866L53.4002 94.6877L45.1975 86.485L53.4002 78.2822C76.7984 80.8809 75.9057 80.7817 76.0049 80.7817C77.0067 80.8809 77.8002 81.5852 77.9093 82.577C78.0085 83.8764 77.0067 84.8782 75.8065 84.8782L63.1106 84.2731C62.4064 84.2731 61.8113 84.769 61.8113 85.4733C61.8113 86.1775 62.3072 86.7726 63.0114 86.7726C76.5107 87.3777 75.7073 87.3777 75.9156 87.3777C78.0184 87.3777 79.9128 85.8799 80.3195 83.8764C91.9244 73.0749 91.4185 73.4816 91.4185 73.4816C92.3211 72.579 93.8188 72.579 94.7214 73.4816C95.624 74.1858 95.624 75.5844 94.7214 76.477L94.7016 76.4969Z" fill="black"/>
<path d="M71.006 59.6053C70.51 59.4069 70.0042 59.2086 69.6074 59.0003C69.4091 58.9011 69.3099 58.8019 69.3099 58.8019L68.3081 60.7063C69.3099 61.4105 70.6092 61.8072 71.8094 61.9064V63.5033H72.712V61.9064C73.1087 61.9064 73.5154 61.8072 73.9122 61.7081C74.3089 61.6089 74.6164 61.4105 74.9139 61.2121C75.2115 61.0137 75.4099 60.7162 75.6182 60.3095C75.8165 59.9128 75.9157 59.5061 75.9157 59.0102C75.9157 58.6134 75.8165 58.2068 75.7173 57.9092C75.519 57.4133 75.0131 56.9074 74.2196 56.5107C73.317 56.2131 72.7219 56.0147 72.5235 56.0147V54.0112C72.8211 54.0112 73.0195 54.1104 73.2278 54.2095C73.6245 54.3087 74.0312 54.5071 74.4279 54.7055C74.5271 54.8047 74.6263 54.8047 74.6263 54.9038L75.6281 53.0987C75.2313 52.9003 74.8247 52.7019 74.3287 52.5035C73.8328 52.3052 73.2278 52.206 72.7318 52.1068V50.7083H71.8292V52.1068C70.5299 52.206 69.5281 52.811 69.0322 53.9021C68.8338 54.2988 68.8338 54.7055 68.8338 55.1022C68.8338 56.104 69.2305 56.7983 70.2323 57.3042C70.9366 57.7009 71.73 57.8001 72.0375 57.8993V59.6946C71.74 59.6946 71.3333 59.6946 71.0357 59.5954L71.006 59.6053ZM72.6029 58.2068C72.9004 58.306 73.198 58.4051 73.4063 58.6035C73.6047 58.7027 73.7039 58.9011 73.7039 59.0994C73.7039 59.4962 73.4063 59.8037 72.7021 59.8037L72.6029 58.2068ZM71.3035 55.3105C71.1052 55.2113 71.1052 55.013 71.1052 54.8146C71.1052 54.3186 71.4027 54.1104 72.0078 54.0112V55.7073C71.7102 55.6081 71.4126 55.5089 71.3035 55.3105Z" fill="black"/>
<path d="M72.2061 67.5997C78.0086 67.5997 82.8092 62.799 82.8092 56.9966C82.8092 51.1942 78.0086 46.3936 72.2061 46.3936C71.5019 46.3936 70.9068 46.9887 70.9068 47.6929C70.9068 48.3971 71.5019 48.9922 72.2061 48.9922C76.7092 48.9922 80.3097 52.5927 80.3097 57.0958C80.3097 61.5989 76.7092 65.1993 72.2061 65.1993C67.7031 65.1993 64.1026 61.5989 64.1026 57.0958C64.1026 56.3916 63.5075 55.7965 62.8033 55.7965C62.099 55.7965 61.5039 56.3916 61.5039 57.0958C61.6031 62.8982 66.3045 67.5997 72.2061 67.5997Z" fill="black"/>
<path d="M72.2061 72.5987C80.8055 72.5987 87.8081 65.5961 87.8081 56.9966C87.8081 48.3971 80.8055 41.3945 72.2061 41.3945C63.6066 41.3945 56.604 48.3971 56.604 56.9966C56.604 65.5961 63.6066 72.5987 72.2061 72.5987ZM72.2061 43.894C79.407 43.894 85.3086 49.7956 85.3086 56.9966C85.3086 64.1975 79.407 70.0992 72.2061 70.0992C65.0051 70.0992 59.1035 64.2967 59.1035 56.9966C59.1035 49.6965 65.0051 43.894 72.2061 43.894Z" fill="black"/>
<path d="M49.1055 70.0992C51.2082 70.0992 52.9043 68.4031 52.9043 66.3003C52.9043 64.1976 51.2082 62.5015 49.1055 62.5015C47.0027 62.5015 45.3066 64.1976 45.3066 66.3003C45.3066 68.4031 47.0027 70.0992 49.1055 70.0992ZM49.1055 65.1002C49.8097 65.1002 50.4048 65.6953 50.4048 66.3995C50.4048 67.1037 49.8097 67.6988 49.1055 67.6988C48.4013 67.6988 47.8061 67.1037 47.8061 66.3995C47.8061 65.6953 48.4013 65.1002 49.1055 65.1002Z" fill="black"/>
<path d="M92.202 50.1032C94.6023 50.1032 96.6059 48.0996 96.6059 45.6993C96.6059 43.299 94.6023 41.2954 92.202 41.2954C89.8017 41.2954 87.7981 43.299 87.7981 45.6993C87.7981 48.0996 89.8017 50.1032 92.202 50.1032ZM92.202 43.904C93.2038 43.904 94.1064 44.7074 94.1064 45.8084C94.1064 46.8102 93.303 47.7128 92.202 47.7128C91.101 47.7128 90.2976 46.9094 90.2976 45.8084C90.2976 44.7074 91.2002 43.904 92.202 43.904Z" fill="black"/>
</g>
<defs>
<clipPath id="clip0_518_790">
<rect width="100" height="100" fill="white" transform="translate(20.5 20)"/>
</clipPath>
</defs>
</svg>
