<svg width="140" height="140" viewBox="0 0 140 140" fill="none" xmlns="http://www.w3.org/2000/svg">
<rect width="140" height="140" rx="70" fill="#F0F2FF"/>
<g clip-path="url(#clip0_518_798)">
<path d="M98.4011 97.6037H95.9016C94.5031 97.6037 93.4021 96.5027 93.4021 95.1042V90.1052C93.4021 87.3081 91.2002 85.1062 88.4031 85.1062C85.606 85.1062 83.4041 87.3081 83.4041 90.1052V95.1042C83.4041 96.5027 82.3031 97.6037 80.9046 97.6037C79.5061 97.6037 78.4051 96.5027 78.4051 95.1042V90.1052C78.4051 87.3081 76.2032 85.1062 73.4061 85.1062C70.609 85.1062 68.4071 87.3081 68.4071 90.1052V95.1042C68.4071 96.5027 67.3061 97.6037 65.9076 97.6037C64.509 97.6037 63.4081 96.5027 63.4081 95.1042V90.1052C63.4081 87.3081 61.2061 85.1062 58.4091 85.1062C55.612 85.1062 53.4101 87.3081 53.4101 90.1052V95.1042C53.4101 96.5027 52.3091 97.6037 50.9106 97.6037C49.512 97.6037 48.411 96.5027 48.411 95.1042V80.1072H53.4101C54.1143 80.1072 54.7094 79.5121 54.7094 78.8078V68.8098C54.7094 68.1056 54.1143 67.5105 53.4101 67.5105H49.6112V52.5135H53.4101C54.1143 52.5135 54.7094 51.9084 54.7094 51.2141V41.2161C54.7094 40.5119 54.1143 39.9167 53.4101 39.9167H47.806C43.3029 39.9167 39.6033 43.6164 39.6033 48.1195V72.0235C39.6033 75.8223 42.3011 79.1252 45.9016 79.9286V95.124C45.9016 97.9211 48.1036 100.123 50.9006 100.123C53.6977 100.123 55.8996 97.9211 55.8996 95.124V90.125C55.8996 88.7265 57.0006 87.6255 58.3991 87.6255C59.7977 87.6255 60.8986 88.7265 60.8986 90.125V95.124C60.8986 97.9211 63.1006 100.123 65.8977 100.123C68.6947 100.123 70.8967 97.9211 70.8967 95.124V90.125C70.8967 88.7265 71.9976 87.6255 73.3962 87.6255C74.7947 87.6255 75.8957 88.7265 75.8957 90.125V95.124C75.8957 97.9211 78.0976 100.123 80.8947 100.123C83.6917 100.123 85.8937 97.9211 85.8937 95.124V90.125C85.8937 88.7265 86.9947 87.6255 88.3932 87.6255C89.7917 87.6255 90.8927 88.7265 90.8927 90.125V95.124C90.8927 97.9211 93.0946 100.123 95.8917 100.123H98.3912C99.0954 100.123 99.6906 99.5279 99.6906 98.8237C99.5914 98.2187 99.0855 97.6236 98.3912 97.6236L98.4011 97.6037ZM42.1028 72.0036V48.3079C42.1028 45.2034 44.6023 42.6047 47.806 42.6047H52.1107V50.1032H49.6112V48.8039C49.6112 48.0996 49.0062 47.5045 48.3119 47.5045C47.6176 47.5045 47.0125 48.0996 47.0125 48.8039V71.3093C47.0125 72.0136 47.6176 72.6087 48.3119 72.6087C49.0062 72.6087 49.6112 72.0136 49.6112 71.3093V70.01H52.1107V77.5085H47.806C44.7114 77.6077 42.1028 75.1082 42.1028 72.0036Z" fill="black"/>
<path d="M64.6976 78.5004C64.4 79.403 65.1935 80.1965 66.0961 80.0973L74.7948 78.5004C85.6954 80.7023 95.7926 72.4004 95.7926 61.4006C95.7926 51.7993 87.8974 43.9041 78.2961 43.9041C68.6948 43.9041 60.7996 51.7993 60.7996 61.4006C60.7996 66.102 62.694 70.496 65.8978 73.7989L64.6976 78.5004ZM63.3983 61.4006C63.3983 53.0987 70.0933 46.4036 78.3953 46.4036C86.6972 46.4036 93.3923 53.0987 93.3923 61.4006C93.3923 70.9027 84.5944 78.1036 75.1915 76.0009C74.7948 75.9017 75.1915 75.9017 67.693 77.3002L68.6948 73.7989C68.794 73.303 68.6948 72.7971 68.2981 72.4996C65.1935 69.6033 63.3983 65.5962 63.3983 61.4006Z" fill="black"/>
<path d="M78.0977 56.7984C78.5937 56.5008 79.3971 56.6 79.9922 56.9968C80.5972 57.4927 80.5972 58.3953 80.1906 59.0003C78.6928 61.0039 76.1933 60.2005 76.1933 63.801H78.8912C78.8912 61.6982 83.3943 62.1049 83.3943 58.0977C83.3943 57.2943 83.2951 56.6992 82.9975 56.1933C82.5016 55.1916 81.599 54.4973 80.498 54.1898C78.1969 53.4856 75.499 54.3881 74.5964 56.6893L76.6992 58.187C77.1951 57.4828 77.5026 57.086 78.0977 56.7885V56.7984Z" fill="black"/>
<path d="M79.0001 65.8044H76.3022V68.909H79.0001V65.8044Z" fill="black"/>
</g>
<defs>
<clipPath id="clip0_518_798">
<rect width="100" height="100" fill="white" transform="translate(20.5 20)"/>
</clipPath>
</defs>
</svg>
