<svg width="140" height="140" viewBox="0 0 140 140" fill="none" xmlns="http://www.w3.org/2000/svg">
<rect width="140" height="140" rx="70" fill="#F0F2FF"/>
<g clip-path="url(#clip0_518_789)">
<path d="M99.6014 48.9029C99.6014 48.5062 99.403 48.1987 99.1055 47.9011C88.5024 40.0059 89.1075 40.3034 88.6016 40.2042C88.304 40.1051 90.506 40.2042 55.8006 40.2042C55.0963 40.2042 54.5012 40.7994 54.5012 41.5036V51.5016C54.5012 52.2058 55.0963 52.8009 55.8006 52.8009C56.5048 52.8009 57.0999 52.2058 57.0999 51.5016V42.7037H87.1039V49.0021C87.1039 49.7063 87.7089 50.3014 88.4032 50.3014H97.2011V97.8019H57.1991V89.0041C57.1991 88.2999 56.604 87.7047 55.8998 87.7047C55.1955 87.7047 54.6004 88.2999 54.6004 89.0041V99.0021C54.6004 99.7063 55.1955 100.301 55.8998 100.301H98.4012C99.1055 100.301 99.7006 99.7063 99.7006 99.0021V48.9029H99.6014ZM89.6034 43.9039L94.6024 47.7028H89.6034V43.9039Z" fill="black"/>
<path d="M89.6033 91.4043H74.6062C73.902 91.4043 73.3069 91.9994 73.3069 92.7036C73.3069 93.4079 73.902 94.003 74.6062 94.003H89.6033C90.3075 94.003 90.9026 93.398 90.9026 92.7036C90.9026 91.9002 90.2976 91.4043 89.6033 91.4043Z" fill="black"/>
<path d="M89.6032 85.0962H64.6082C63.904 85.0962 63.3088 85.7012 63.3088 86.3955C63.3088 87.0898 63.904 87.6949 64.6082 87.6949H89.6032C90.3074 87.6949 90.9026 87.0898 90.9026 86.3955C90.9026 85.7012 90.2975 85.0962 89.6032 85.0962Z" fill="black"/>
<path d="M89.6032 78.897H75.9055C75.2112 78.897 74.6062 79.502 74.6062 80.1963C74.6062 80.8906 75.2112 81.4957 75.9055 81.4957H89.7024C90.4066 81.4957 91.0018 80.8906 91.0018 80.1963C90.9026 79.3929 90.2975 78.897 89.6032 78.897Z" fill="black"/>
<path d="M89.6032 72.5986H75.9055C75.2112 72.5986 74.6062 73.1938 74.6062 73.898C74.6062 74.6022 75.2112 75.1973 75.9055 75.1973H89.7024C90.4066 75.1973 91.0018 74.6022 91.0018 73.898C90.9026 73.1938 90.2975 72.5986 89.6032 72.5986Z" fill="black"/>
<path d="M89.6032 66.3994H75.9055C75.2112 66.3994 74.6062 67.0045 74.6062 67.6988C74.6062 68.3931 75.2112 68.9981 75.9055 68.9981H89.7024C90.4066 68.9981 91.0018 68.3931 91.0018 67.6988C90.9026 66.8953 90.2975 66.3994 89.6032 66.3994Z" fill="black"/>
<path d="M89.6032 60.1011H75.9055C75.2112 60.1011 74.6062 60.6962 74.6062 61.4004C74.6062 62.1046 75.2112 62.6998 75.9055 62.6998H89.7024C90.4066 62.6998 91.0018 62.1046 91.0018 61.4004C90.9026 60.6962 90.2975 60.1011 89.6032 60.1011Z" fill="black"/>
<path d="M89.6032 53.9019H64.6082C63.904 53.9019 63.3088 54.5069 63.3088 55.2012C63.3088 55.8955 63.904 56.5005 64.6082 56.5005H89.6032C90.3074 56.5005 90.9026 55.8955 90.9026 55.2012C90.9026 54.3978 90.2975 53.9019 89.6032 53.9019Z" fill="black"/>
<path d="M69.5973 70.0991C69.5973 61.7972 62.9022 55.1021 54.6003 55.1021C46.2984 55.1021 39.6033 61.7972 39.6033 70.0991C39.6033 74.6021 41.706 78.9961 45.2073 81.8031L44.6122 86.1078C44.513 87.1096 45.5148 87.8039 46.4075 87.4071L51.704 84.7093C61.0078 86.7128 69.6072 79.5119 69.6072 70.109L69.5973 70.0991ZM50.9998 82.3982L47.4985 84.1935L47.8953 81.4956C47.9945 80.9997 47.7961 80.593 47.3993 80.2955C44.0964 77.9943 42.202 74.1955 42.202 70.0991C42.202 63.1957 47.806 57.6016 54.6995 57.6016C61.593 57.6016 67.197 63.2056 67.197 70.0991C67.197 76.9925 61.4938 82.5966 54.6003 82.5966C52.2 82.5966 51.8032 82.0015 50.9998 82.3982Z" fill="black"/>
<path d="M54.6004 58.9009C52.696 58.9009 51.0991 60.4978 51.0991 62.4022V70.1982C51.0991 72.1026 52.696 73.6995 54.6004 73.6995C56.5048 73.6995 58.1017 72.1026 58.1017 70.1982V62.4022C58.1017 60.3986 56.5048 58.9009 54.6004 58.9009ZM55.6022 70.0991C55.6022 70.595 55.2054 71.1008 54.6004 71.1008C53.9954 71.1008 53.5986 70.7041 53.5986 70.0991V62.303C53.5986 61.807 53.9954 61.3012 54.6004 61.3012C55.2054 61.3012 55.6022 61.6979 55.6022 62.303V70.0991Z" fill="black"/>
<path d="M54.6004 74.4038C52.696 74.4038 51.0991 76.0007 51.0991 77.9051C51.0991 79.8095 52.696 81.4064 54.6004 81.4064C56.5048 81.4064 58.1017 79.8095 58.1017 77.9051C58.1017 76.0007 56.5048 74.4038 54.6004 74.4038ZM54.6004 78.9069C54.1045 78.9069 53.5986 78.5101 53.5986 77.9051C53.5986 77.3001 53.9954 76.9033 54.6004 76.9033C55.2054 76.9033 55.6022 77.3001 55.6022 77.9051C55.6022 78.5101 55.2054 78.9069 54.6004 78.9069Z" fill="black"/>
</g>
<defs>
<clipPath id="clip0_518_789">
<rect width="100" height="100" fill="white" transform="translate(20.5 20)"/>
</clipPath>
</defs>
</svg>
