<svg width="391" height="115" viewBox="0 0 391 115" fill="none" xmlns="http://www.w3.org/2000/svg">
<path d="M82.5134 0.94946C83.9588 0.555233 85.2072 0.35812 86.2585 0.35812C88.4924 0.35812 90.3321 1.08086 91.7776 2.52635C92.9603 3.70902 93.683 5.28592 93.9458 7.25704C94.2087 9.22816 94.143 11.3964 93.7487 13.7617C93.4859 16.1271 92.9603 18.6238 92.1718 21.252C91.5148 23.8801 90.7921 26.5083 90.0036 29.1365V29.5307C89.6094 30.8448 88.6895 31.3047 87.244 30.9105C85.93 30.3848 85.47 29.465 85.8643 28.1509L86.0614 27.9538C86.4556 26.5083 86.9812 24.7343 87.6383 22.6318C88.2953 20.3978 88.8209 18.1639 89.2152 15.93C89.6094 13.5646 89.8065 11.4621 89.8065 9.62238C89.8065 7.65126 89.4123 6.27148 88.6238 5.48303C87.704 4.43177 86.0614 4.30036 83.696 5.0888C76.4686 7.05992 69.3726 10.3451 62.4079 14.9444C55.5747 19.4123 49.2014 24.6686 43.2881 30.7134C37.3747 36.7581 31.987 43.2628 27.1249 50.2274C22.2628 57.0606 18.1892 63.8282 14.904 70.53C11.6188 77.2318 9.18772 83.4736 7.61083 89.2556C6.03393 95.0375 5.57401 99.8339 6.23105 103.645C6.75668 106.667 7.74224 108.507 9.18772 109.164C10.5018 109.69 11.8816 109.887 13.3271 109.755C16.4809 109.492 20.3574 108.375 24.9567 106.404C29.556 104.302 34.3523 101.739 39.3458 98.717C44.4708 95.5632 49.6614 92.0809 54.9177 88.27C60.3054 84.4592 65.2989 80.7798 69.8982 77.2318C74.6289 73.5523 78.7682 70.2014 82.3162 67.1791C85.9957 64.0253 88.8209 61.5942 90.7921 59.8859C91.8433 58.8347 92.8289 58.9004 93.7487 60.083C94.143 60.4773 94.3401 61.0029 94.3401 61.6599C94.3401 62.1856 94.0773 62.6455 93.5516 63.0397C93.4202 63.1711 91.909 64.4852 89.018 66.982C86.2585 69.4787 82.5791 72.5668 77.9798 76.2462C73.3805 79.9256 68.1899 83.9336 62.4079 88.27C56.626 92.4751 50.7783 96.483 44.865 100.294C38.9516 103.973 33.2354 107.127 27.7162 109.755C22.3285 112.383 17.5978 113.829 13.5242 114.092C6.95379 114.092 3.07726 110.872 1.89458 104.433C1.23754 100.228 1.69747 95.1032 3.27437 89.0585C4.85126 82.8823 7.34801 76.3119 10.7646 69.3473C14.0498 62.3827 18.1892 55.2866 23.1827 48.0592C28.3076 40.8318 33.9581 34.0643 40.1343 27.7567C46.3105 21.4491 52.9466 15.93 60.0426 11.1993C67.27 6.46859 74.7603 3.05198 82.5134 0.94946ZM104.237 72.1069C105.551 71.7126 106.471 72.1726 106.997 73.4866C107.391 74.8007 106.931 75.7206 105.617 76.2462C103.909 76.7718 101.938 78.1516 99.7037 80.3856C97.6011 82.6195 95.63 85.1819 93.7903 88.0729C91.9506 90.8325 90.5051 93.6578 89.4539 96.5487C88.2712 99.3083 87.8113 101.542 88.0741 103.251C88.2055 103.645 88.4026 104.039 88.6654 104.433C88.7968 104.696 89.3881 104.762 90.4394 104.63C92.0163 104.63 93.856 104.105 95.9585 103.053C98.1925 101.871 100.426 100.425 102.66 98.717C104.894 96.8773 107.063 94.8404 109.165 92.6065C111.268 90.3726 113.173 88.2043 114.881 86.1018C112.516 85.7076 110.676 84.7877 109.362 83.3422C107.917 81.2397 107.982 79.0058 109.559 76.6404C110.611 75.0635 112.122 73.7495 114.093 72.6982C116.064 71.6469 118.166 71.3184 120.4 71.7126C123.029 72.3697 124.211 74.1437 123.948 77.0347C123.948 77.6917 123.817 78.4144 123.554 79.2029C123.291 79.8599 122.963 80.7141 122.569 81.7653C124.408 81.5025 126.642 81.1083 129.27 80.5827C131.899 79.9256 135.052 79.0058 138.732 77.8231C139.389 77.5603 139.915 77.626 140.309 78.0202C140.834 78.283 141.163 78.6773 141.294 79.2029C141.557 79.8599 141.491 80.3856 141.097 80.7798C140.703 81.0426 140.243 81.2397 139.717 81.3711C135.512 82.8166 131.767 83.9336 128.482 84.722C125.328 85.5105 122.437 86.0361 119.809 86.2989C118.495 88.27 116.655 90.5697 114.29 93.1978C112.056 95.826 109.559 98.3227 106.8 100.688C104.172 102.922 101.346 104.893 98.3239 106.601C95.4329 108.178 92.7391 108.967 90.2423 108.967C86.6943 108.967 84.5918 107.324 83.9347 104.039C83.5405 101.805 83.9347 99.0455 85.1174 95.7603C86.3001 92.3437 87.9427 89.0585 90.0452 85.9047C92.1477 82.6195 94.4474 79.7285 96.9441 77.2318C99.5723 74.6036 102.003 72.8953 104.237 72.1069ZM112.91 80.7798C113.042 80.9112 113.37 81.1083 113.896 81.3711C114.553 81.6339 115.801 81.831 117.641 81.9625C117.904 81.4368 118.101 81.1083 118.232 80.9769C119.152 79.1372 119.612 77.8231 119.612 77.0347C119.743 76.6404 119.743 76.3119 119.612 76.0491C119.349 75.9177 119.021 75.852 118.626 75.852C117.575 75.852 116.524 76.1805 115.473 76.8375C114.421 77.4946 113.633 78.2173 113.107 79.0058C112.976 79.2686 112.844 79.5971 112.713 79.9913C112.582 80.2541 112.647 80.517 112.91 80.7798ZM130.234 90.4383C131.286 88.5986 132.468 86.6274 133.782 84.5249C134.965 82.291 136.148 80.1884 137.33 78.2173C138.645 76.2462 139.827 74.4722 140.878 72.8953C141.93 71.187 142.784 69.8729 143.441 68.9531C144.492 67.7704 145.478 67.639 146.398 68.5588C147.58 69.6101 147.712 70.5957 146.792 71.5155C146.135 72.4354 145.215 73.8152 144.032 75.6549C142.85 77.4946 141.601 79.5314 140.287 81.7653C138.973 83.9993 137.593 86.3646 136.148 88.8614C134.702 91.3581 133.323 93.7235 132.008 95.9574C136.739 90.9639 140.616 86.8903 143.638 83.7365C146.792 80.5827 149.42 78.1516 151.523 76.4433C153.625 74.6036 155.202 73.4209 156.253 72.8953C157.436 72.2383 158.421 71.9097 159.21 71.9097C160.261 71.9097 161.05 72.3697 161.575 73.2895C162.232 74.3408 162.167 76.0491 161.378 78.4144C160.721 80.7798 159.276 84.4592 157.042 89.4527C155.99 91.5552 154.939 93.8549 153.888 96.3516C152.968 98.8484 152.377 100.754 152.114 102.068C154.742 101.411 158.027 99.9653 161.969 97.7314C165.912 95.3661 169.788 92.8693 173.599 90.2412C177.541 87.4816 180.958 84.9848 183.849 82.7509C186.871 80.3856 188.645 78.9401 189.171 78.4144C190.222 77.3632 191.208 77.3632 192.128 78.4144C192.653 78.8087 192.785 79.2686 192.522 79.7942C192.259 80.3199 191.93 80.7798 191.536 81.174C191.536 81.174 190.814 81.831 189.368 83.1451C187.923 84.3278 186.017 85.839 183.652 87.6787C181.286 89.387 178.658 91.2924 175.767 93.3949C172.876 95.4975 169.92 97.5343 166.897 99.5054C164.006 101.345 161.181 102.922 158.421 104.236C155.662 105.55 153.297 106.339 151.325 106.601C150.011 106.864 149.026 106.47 148.369 105.419C147.449 104.236 147.383 102.396 148.172 99.8996C148.96 97.4029 150.603 93.3949 153.099 87.8758C153.756 86.0361 154.545 84.1307 155.465 82.1596C156.385 80.057 157.042 78.283 157.436 76.8375C153.625 79.4657 144.229 88.9928 129.249 105.419C128.329 106.47 127.606 107.324 127.081 107.981C126.424 108.638 125.898 109.098 125.504 109.361C124.978 110.018 124.321 110.347 123.533 110.347C123.138 110.347 122.876 110.281 122.744 110.149C122.481 110.018 122.284 109.952 122.153 109.952C121.759 109.558 121.496 109.164 121.364 108.77C121.233 108.375 121.43 107.587 121.956 106.404C122.35 105.09 123.204 103.251 124.518 100.885C125.832 98.3884 127.738 94.9061 130.234 90.4383ZM173.553 49.6361C176.312 49.3733 180.583 49.1762 186.365 49.0448C192.147 48.9134 198.389 48.7819 205.091 48.6505C207.193 45.1025 209.427 41.3574 211.793 37.4152C214.289 33.4729 216.852 29.3336 219.48 24.9971C220.4 23.5516 221.123 22.369 221.648 21.4491C222.305 20.5292 222.765 19.8065 223.028 19.2809C223.685 18.0982 224.671 17.8354 225.985 18.4924C226.51 18.7552 226.839 19.2152 226.97 19.8722C227.102 20.3978 227.036 20.9235 226.773 21.4491C226.51 21.9747 226.05 22.6975 225.393 23.6173C224.736 24.5372 223.948 25.7199 223.028 27.1653C220.663 31.1076 218.363 34.8527 216.129 38.4007C214.027 41.9487 211.99 45.3653 210.019 48.6505C216.72 48.5191 222.897 48.5191 228.547 48.6505C234.198 48.7819 238.271 49.0448 240.768 49.439C242.214 49.7018 242.805 50.4903 242.542 51.8043C242.279 53.2498 241.491 53.8412 240.177 53.5783C237.549 53.3155 233.212 53.1184 227.167 52.987C221.123 52.8556 214.552 52.8556 207.456 52.987C201.28 63.631 196.418 72.4354 192.87 79.4C189.453 86.2332 186.956 91.7523 185.38 95.9574C183.803 100.031 182.949 103.053 182.817 105.025C182.686 106.996 182.817 108.31 183.211 108.967C183.474 109.23 183.868 109.361 184.394 109.361C184.788 109.361 185.248 109.295 185.774 109.164C191.95 107.85 198.258 105.55 204.697 102.265C211.136 98.8484 217.049 95.3661 222.437 91.818C227.824 88.27 232.227 85.1819 235.643 82.5538C239.191 79.7942 241.031 78.3487 241.162 78.2173C242.082 77.2975 243.068 77.4289 244.119 78.6116C244.513 79.0058 244.579 79.4657 244.316 79.9913C244.053 80.517 243.659 80.9112 243.133 81.174C242.871 81.4368 240.965 83.0137 237.417 85.9047C233.869 88.7957 229.401 92.0809 224.014 95.7603C218.626 99.3083 212.647 102.791 206.076 106.207C199.506 109.492 193.067 111.858 186.759 113.303C185.708 113.566 184.92 113.697 184.394 113.697C183.08 113.697 182.094 113.5 181.437 113.106C180.649 112.581 180.058 111.989 179.663 111.332C177.561 108.31 178.349 102.199 182.029 93.0007C185.577 83.6708 192.41 70.3329 202.528 52.987C196.615 53.1184 191.096 53.2498 185.971 53.3812C180.846 53.5126 176.772 53.644 173.75 53.7755C172.304 53.7755 171.582 53.1184 171.582 51.8043C171.582 50.3588 172.239 49.6361 173.553 49.6361ZM226.534 91.818C228.111 89.5841 230.148 87.2188 232.645 84.722C235.142 82.2253 237.967 79.9913 241.121 78.0202C244.406 75.9177 247.757 74.3408 251.173 73.2895C254.721 72.1069 258.269 71.7783 261.817 72.304C261.949 72.304 262.08 72.3697 262.212 72.5011C263.657 70.6614 264.643 69.5444 265.168 69.1502C265.825 68.756 266.548 68.8217 267.337 69.3473C267.599 69.6101 267.862 70.0043 268.125 70.53C268.519 70.9242 268.454 71.6469 267.928 72.6982C267.665 73.2238 267.337 73.8152 266.942 74.4722C266.548 75.1292 266.088 75.9834 265.563 77.0347C264.774 78.3487 263.723 80.1884 262.409 82.5538C261.226 84.7877 260.043 87.1531 258.861 89.6498C257.809 92.0152 256.955 94.2491 256.298 96.3516C255.773 98.4542 255.773 99.8996 256.298 100.688C256.561 100.951 256.89 101.148 257.284 101.279C257.809 101.279 258.204 101.214 258.467 101.082C260.569 100.819 262.934 100.162 265.563 99.1112C268.191 97.9285 270.819 96.6144 273.447 95.169C276.207 93.5921 278.9 91.9495 281.529 90.2412C284.157 88.4014 286.456 86.7588 288.428 85.3134C290.399 83.7365 291.976 82.4881 293.158 81.5682C294.472 80.517 295.129 79.9913 295.129 79.9913C295.524 79.5971 295.983 79.4657 296.509 79.5971C297.166 79.5971 297.692 79.7942 298.086 80.1884C298.743 81.1083 298.48 82.0282 297.298 82.948C297.035 83.0794 295.524 84.2621 292.764 86.496C290.136 88.73 286.851 91.2267 282.908 93.9863C279.098 96.6144 275.024 99.1112 270.687 101.477C266.351 103.71 262.409 105.025 258.861 105.419C257.021 105.682 255.641 105.55 254.721 105.025C253.802 104.368 253.145 103.71 252.75 103.053C251.699 101.477 251.436 99.4397 251.962 96.943C252.487 94.3148 253.473 91.3581 254.919 88.0729C250.319 93.1978 245.72 97.6657 241.121 101.477C236.521 105.287 232.316 107.193 228.506 107.193H228.308C226.6 107.193 225.352 106.93 224.563 106.404C223.643 105.747 223.052 105.09 222.789 104.433C221.738 102.594 221.738 100.491 222.789 98.1256C223.841 95.7603 225.089 93.6578 226.534 91.818ZM226.534 102.462C226.666 102.856 227.323 103.053 228.506 103.053C230.739 103.053 233.236 102.068 235.996 100.097C238.755 98.1256 241.581 95.7603 244.472 93.0007C247.363 90.2412 250.056 87.3502 252.553 84.3278C255.181 81.174 257.415 78.4801 259.255 76.2462C256.495 76.2462 253.67 76.7718 250.779 77.8231C248.02 78.8744 245.326 80.3199 242.698 82.1596C240.201 83.8679 237.835 85.7733 235.602 87.8758C233.368 89.9783 231.462 92.1466 229.885 94.3805C228.308 96.6144 227.323 98.4542 226.929 99.8996C226.403 101.214 226.272 102.068 226.534 102.462ZM302.838 73.6838C304.021 73.0267 305.401 72.6982 306.978 72.6982C309.343 72.6982 311.183 73.7495 312.497 75.852C313.154 77.1661 312.957 78.1516 311.905 78.8087C311.38 79.2029 310.788 79.3343 310.131 79.2029C309.606 79.0715 309.212 78.743 308.949 78.2173C308.555 77.5603 308.029 77.1004 307.372 76.8375C306.846 76.5747 305.926 76.7718 304.612 77.4289C302.641 78.3487 300.604 80.057 298.502 82.5538C296.399 84.9191 294.56 87.4816 292.983 90.2412C291.274 93.0007 290.026 95.6946 289.238 98.3227C288.318 100.951 288.121 102.988 288.646 104.433C288.778 104.696 289.106 105.09 289.632 105.616C290.157 106.142 291.471 106.076 293.574 105.419C296.202 104.762 299.159 103.513 302.444 101.674C305.861 99.8339 309.212 97.7314 312.497 95.3661C315.913 93.0007 319.133 90.6354 322.155 88.27C325.178 85.9047 327.74 83.8679 329.843 82.1596C332.471 80.057 334.048 78.8087 334.573 78.4144C335.23 78.0202 335.822 77.8231 336.347 77.8231C337.793 77.8231 338.516 78.5458 338.516 79.9913C338.516 80.3856 338.318 80.7141 337.924 80.9769C337.53 81.2397 337.136 81.5025 336.742 81.7653C336.479 82.0282 335.887 82.4881 334.968 83.1451C334.179 83.6708 333.259 84.3278 332.208 85.1162C329.974 86.956 327.28 89.1899 324.126 91.818C320.973 94.3148 317.687 96.7458 314.271 99.1112C310.854 101.477 307.438 103.645 304.021 105.616C300.604 107.587 297.451 108.901 294.56 109.558C293.114 109.952 291.931 110.149 291.012 110.149C288.909 110.149 287.398 109.69 286.478 108.77C285.558 107.718 284.901 106.799 284.507 106.01C283.718 103.908 283.85 101.279 284.901 98.1256C285.821 94.8404 287.266 91.5552 289.238 88.27C291.077 84.9848 293.18 82.0282 295.545 79.4C298.042 76.6404 300.473 74.735 302.838 73.6838ZM319.847 49.6361C322.606 49.3733 326.877 49.1762 332.659 49.0448C338.441 48.9134 344.683 48.7819 351.385 48.6505C353.487 45.1025 355.721 41.3574 358.087 37.4152C360.583 33.4729 363.146 29.3336 365.774 24.9971C366.694 23.5516 367.417 22.369 367.942 21.4491C368.599 20.5292 369.059 19.8065 369.322 19.2809C369.979 18.0982 370.965 17.8354 372.279 18.4924C372.804 18.7552 373.133 19.2152 373.264 19.8722C373.396 20.3978 373.33 20.9235 373.067 21.4491C372.804 21.9747 372.344 22.6975 371.687 23.6173C371.03 24.5372 370.242 25.7199 369.322 27.1653C366.957 31.1076 364.657 34.8527 362.423 38.4007C360.321 41.9487 358.284 45.3653 356.313 48.6505C363.014 48.5191 369.191 48.5191 374.841 48.6505C380.492 48.7819 384.565 49.0448 387.062 49.439C388.508 49.7018 389.099 50.4903 388.836 51.8043C388.573 53.2498 387.785 53.8412 386.471 53.5783C383.843 53.3155 379.506 53.1184 373.461 52.987C367.417 52.8556 360.846 52.8556 353.75 52.987C347.574 63.631 342.712 72.4354 339.164 79.4C335.747 86.2332 333.25 91.7523 331.674 95.9574C330.097 100.031 329.243 103.053 329.111 105.025C328.98 106.996 329.111 108.31 329.505 108.967C329.768 109.23 330.162 109.361 330.688 109.361C331.082 109.361 331.542 109.295 332.068 109.164C338.244 107.85 344.552 105.55 350.991 102.265C357.43 98.8484 363.343 95.3661 368.731 91.818C374.118 88.27 378.521 85.1819 381.937 82.5538C385.485 79.7942 387.325 78.3487 387.456 78.2173C388.376 77.2975 389.362 77.4289 390.413 78.6116C390.807 79.0058 390.873 79.4657 390.61 79.9913C390.347 80.517 389.953 80.9112 389.427 81.174C389.165 81.4368 387.259 83.0137 383.711 85.9047C380.163 88.7957 375.695 92.0809 370.308 95.7603C364.92 99.3083 358.941 102.791 352.37 106.207C345.8 109.492 339.361 111.858 333.053 113.303C332.002 113.566 331.214 113.697 330.688 113.697C329.374 113.697 328.388 113.5 327.731 113.106C326.943 112.581 326.352 111.989 325.957 111.332C323.855 108.31 324.643 102.199 328.323 93.0007C331.871 83.6708 338.704 70.3329 348.822 52.987C342.909 53.1184 337.39 53.2498 332.265 53.3812C327.14 53.5126 323.066 53.644 320.044 53.7755C318.599 53.7755 317.876 53.1184 317.876 51.8043C317.876 50.3588 318.533 49.6361 319.847 49.6361Z" fill="black"/>
</svg>
