<svg width="67" height="67" viewBox="0 0 67 67" fill="none" xmlns="http://www.w3.org/2000/svg">
<path d="M43.8133 41.0538C43.6779 41.1904 43.5167 41.2986 43.339 41.3721C43.1612 41.4455 42.9706 41.4828 42.7783 41.4816C42.3905 41.4813 42.0185 41.3271 41.7443 41.0529C41.47 40.7786 41.3158 40.4067 41.3156 40.0188L41.3156 24.9222L26.219 24.9222C25.84 24.9088 25.4809 24.7489 25.2175 24.476C24.9542 24.2032 24.807 23.8387 24.807 23.4595C24.807 23.0802 24.9542 22.7158 25.2176 22.4429C25.4809 22.1701 25.84 22.0101 26.219 21.9967L42.7783 21.9967C43.1662 21.997 43.5381 22.1512 43.8124 22.4254C44.0866 22.6997 44.2408 23.0716 44.2411 23.4595L44.2411 40.0188C44.2423 40.2111 44.205 40.4017 44.1316 40.5795C44.0581 40.7572 43.9499 40.9184 43.8133 41.0538Z" fill="white"/>
<path d="M43.8133 24.494L24.494 43.8133C24.2196 44.0878 23.8473 44.242 23.4591 44.242C23.0709 44.242 22.6986 44.0878 22.4241 43.8133C22.1496 43.5388 21.9954 43.1665 21.9954 42.7783C21.9954 42.3901 22.1496 42.0178 22.4241 41.7434L41.7434 22.4241C42.0179 22.1496 42.3901 21.9954 42.7783 21.9954C43.1665 21.9954 43.5388 22.1496 43.8133 22.4241C44.0878 22.6986 44.242 23.0709 44.242 23.4591C44.242 23.8473 44.0878 24.2195 43.8133 24.494Z" fill="white"/>
</svg>
